<?xml version="1.0" encoding="UTF-8"?>
<!DOCTYPE svg PUBLIC "-//W3C//DTD SVG 1.1//EN" "http://www.w3.org/Graphics/SVG/1.1/DTD/svg11.dtd">
<!-- Creator: CorelDRAW -->
<svg xmlns="http://www.w3.org/2000/svg" xml:space="preserve" width="254.655mm" height="255.058mm" version="1.1" style="shape-rendering:geometricPrecision; text-rendering:geometricPrecision; image-rendering:optimizeQuality; fill-rule:evenodd; clip-rule:evenodd"
viewBox="0 0 2321.39 2325.07"
 xmlns:xlink="http://www.w3.org/1999/xlink"
 xmlns:xodm="http://www.corel.com/coreldraw/odm/2003">
 <defs>
  <style type="text/css">
   <![CDATA[
    .fil3 {fill:#0073FA}
    .fil1 {fill:#19AA1E}
    .fil4 {fill:#82D714}
    .fil0 {fill:#FDFEFE}
    .fil2 {fill:#FFB818}
   ]]>
  </style>
   <clipPath id="id0">
    <rect width="2321.39" height="2325.07"/>
   </clipPath>
 </defs>
 <g id="Слой_x0020_1">
  <metadata id="CorelCorpID_0Corel-Layer"/>
  <g style="clip-path:url(#id0)">
   <image x="-0" y="0" width="2321.39" height="2325.07" xlink:href="2gis_Images\2gis_ImgID1.png"/>
  </g>
  <g id="_2310774400720">
   <path class="fil0" d="M9.65 446.62l701.42 109.19c-8.92,15.88 -22.51,23.64 -35.63,39.28 -152.24,181.51 -180.91,384.95 -119.48,617.49 25.74,97.44 72.26,176.17 80.26,206.6 71.64,2.46 122.53,-2.83 189.74,18.64 176.73,56.44 201.83,249.59 201.22,423.87l-982.16 153.23c7.09,8.97 16.48,31.76 22.46,43.27 6.78,13.04 17.06,29.96 25.76,41.03l2228.15 -347.81 0 -91.77 -1025.02 159.72c-4.65,-91.74 20.66,-239.42 86.31,-307.72 32.28,-33.58 63.01,-59.32 122.87,-76.53 62.09,-17.85 113.7,-14.78 179.98,-15.74 5.63,-20.95 24.13,-52.81 33.77,-75.94 35.92,-86.14 59.24,-159.24 70.71,-256.79 8.27,-70.38 7.93,-137.25 -4.81,-206.45 -17.18,-93.28 -38.44,-110.1 -55.29,-165.03l591.48 92.25 0 -91.86 -655.2 -102.11c-12.88,-3.57 -13.36,-11.57 -23.31,-21.63 -50.66,-51.2 -78.46,-81.22 -146,-120.89 -76.22,-44.76 -163.14,-76.17 -267.11,-86.7 -135.18,-13.69 -261.06,11.83 -373.84,69.76 -32.73,16.81 -36.92,26.9 -60.04,23.54 -50.93,-7.39 -102.46,-15.87 -153.22,-24.17 -102.77,-16.8 -205.85,-31.45 -308.66,-48.24 -99.17,-16.2 -206.22,-35.51 -305.07,-47.32 -5.38,9.57 -18.92,72.76 -19.29,88.84z"/>
   <path class="fil1" d="M45.01 2014.92l982.16 -153.23c0.61,-174.27 -24.49,-367.42 -201.22,-423.87 -67.2,-21.46 -118.09,-16.18 -189.74,-18.64 -8,-30.43 -54.52,-109.16 -80.26,-206.6 -61.43,-232.54 -32.76,-435.97 119.48,-617.49 13.12,-15.64 26.71,-23.4 35.63,-39.28l-701.42 -109.19 -8.77 91.3c-0.35,2.56 -0.64,14.64 -0.88,34.21l0 1080.82 0 4.95 0 14.97c0.04,100.36 1.32,211.33 31.72,302.1 4.24,12.65 11.08,27.91 13.29,39.95z"/>
   <path class="fil2" d="M28.94 357.78c98.85,11.82 205.89,31.12 305.07,47.32 102.81,16.79 205.9,31.44 308.66,48.24 50.76,8.3 102.29,16.78 153.22,24.17 23.11,3.35 27.31,-6.73 60.04,-23.54 112.79,-57.93 238.66,-83.45 373.84,-69.76 103.97,10.53 190.9,41.94 267.11,86.7 67.54,39.67 95.34,69.69 146,120.89 9.96,10.06 10.44,18.06 23.31,21.63l655.2 102.11 0 -160.38c-0.29,-19.47 -3.12,-29.12 -3.27,-47 -1.83,-224.38 -148.66,-419.56 -358.62,-480.65 -29,-8.44 -56.16,-13.59 -88.05,-18.05 -28.11,-3.93 -66.53,-7.83 -96.35,-9.45l-209.29 0 -1001.12 0c-19.46,0.29 -29.11,3.12 -46.99,3.27 -162.47,1.33 -328.68,79.59 -419.35,210.88 -24.49,35.47 -59.62,96.42 -69.42,143.63z"/>
   <path class="fil3" d="M694.42 1328.48c159.68,6.39 259.27,50.59 328.01,141.2 78.02,102.85 89.61,219.91 95.37,374.59 12.24,3.76 74.12,-5.46 83.32,-12.18 22.69,-22.23 -55.18,-495.19 426.25,-503.41 7.65,-26.38 32.21,-75.81 48.93,-134.29 14.31,-50.05 23.36,-101.52 26.99,-155.52 20.72,-308.49 -210.41,-567.3 -542.61,-567.22 -330.57,0.08 -561.23,256.95 -542.55,563.94 8.17,134.27 36.53,183.26 76.28,292.89z"/>
   <path class="fil4" d="M93.24 2099.22c19.24,33.01 60.22,73.98 89.03,98.21 129.71,109.08 268.35,124.42 441.48,124.42l1131.8 0.04c45.91,0.26 127.11,-10.32 170.67,-19.03 186.79,-37.34 336.13,-190.17 377.75,-377.9 10.75,-48.49 17.41,-116.64 17.41,-173.55l-2228.15 347.81z"/>
   <path class="fil1" d="M2321.39 1659.64l0 -852.23 -591.48 -92.25c16.85,54.93 38.11,71.75 55.29,165.03 12.74,69.2 13.08,136.07 4.81,206.45 -11.46,97.55 -34.79,170.66 -70.71,256.79 -9.64,23.12 -28.14,54.99 -33.77,75.94 -66.28,0.96 -117.89,-2.11 -179.98,15.74 -59.86,17.21 -90.59,42.95 -122.87,76.53 -65.65,68.31 -90.96,215.99 -86.31,307.72l1025.02 -159.72z"/>
  </g>
 </g>
</svg>
