<?xml version="1.0" encoding="UTF-8"?>
<!DOCTYPE svg PUBLIC "-//W3C//DTD SVG 1.1//EN" "http://www.w3.org/Graphics/SVG/1.1/DTD/svg11.dtd">
<!-- Creator: CorelDRAW -->
<svg xmlns="http://www.w3.org/2000/svg" xml:space="preserve" width="566.865mm" height="250.554mm" version="1.1" style="shape-rendering:geometricPrecision; text-rendering:geometricPrecision; image-rendering:optimizeQuality; fill-rule:evenodd; clip-rule:evenodd"
viewBox="0 0 111212.76 49155.92"
 xmlns:xlink="http://www.w3.org/1999/xlink"
 xmlns:xodm="http://www.corel.com/coreldraw/odm/2003">
 <defs>
  <style type="text/css">
   <![CDATA[
    .fil291 {fill:#070506}
    .fil0 {fill:#B30000}
    .fil2 {fill:#CC2525}
    .fil4 {fill:#DC2818}
    .fil5 {fill:#DC2918}
    .fil7 {fill:#DC2A17}
    .fil6 {fill:#DC2A18}
    .fil8 {fill:#DC2B17}
    .fil9 {fill:#DD2C17}
    .fil10 {fill:#DD2D17}
    .fil11 {fill:#DD2E17}
    .fil12 {fill:#DD2F17}
    .fil13 {fill:#DE3017}
    .fil14 {fill:#DE3116}
    .fil15 {fill:#DE3216}
    .fil16 {fill:#DE3316}
    .fil17 {fill:#DE3416}
    .fil18 {fill:#DF3516}
    .fil19 {fill:#DF3616}
    .fil20 {fill:#DF3716}
    .fil21 {fill:#DF3816}
    .fil22 {fill:#DF3915}
    .fil23 {fill:#E03A15}
    .fil24 {fill:#E03B15}
    .fil25 {fill:#E03C15}
    .fil26 {fill:#E03D15}
    .fil27 {fill:#E13E15}
    .fil28 {fill:#E13F14}
    .fil29 {fill:#E14014}
    .fil30 {fill:#E14214}
    .fil31 {fill:#E14314}
    .fil32 {fill:#E24414}
    .fil33 {fill:#E24514}
    .fil34 {fill:#E24613}
    .fil35 {fill:#E24713}
    .fil36 {fill:#E34813}
    .fil37 {fill:#E34913}
    .fil38 {fill:#E34A13}
    .fil39 {fill:#E34C13}
    .fil40 {fill:#E44D12}
    .fil41 {fill:#E44E12}
    .fil42 {fill:#E44F12}
    .fil43 {fill:#E45012}
    .fil44 {fill:#E55112}
    .fil45 {fill:#E55212}
    .fil46 {fill:#E55411}
    .fil47 {fill:#E55511}
    .fil48 {fill:#E65611}
    .fil49 {fill:#E65711}
    .fil50 {fill:#E65811}
    .fil51 {fill:#E65911}
    .fil52 {fill:#E75B10}
    .fil53 {fill:#E75C10}
    .fil54 {fill:#E75D10}
    .fil55 {fill:#E75E10}
    .fil56 {fill:#E85F10}
    .fil57 {fill:#E86010}
    .fil58 {fill:#E8610F}
    .fil59 {fill:#E8630F}
    .fil60 {fill:#E9640F}
    .fil61 {fill:#E9650F}
    .fil62 {fill:#E9660F}
    .fil63 {fill:#E9670F}
    .fil64 {fill:#EA680E}
    .fil65 {fill:#EA690E}
    .fil66 {fill:#EA6B0E}
    .fil67 {fill:#EA6C0E}
    .fil68 {fill:#EB6D0E}
    .fil69 {fill:#EB6E0E}
    .fil70 {fill:#EB6F0E}
    .fil71 {fill:#EB700D}
    .fil72 {fill:#EB710D}
    .fil73 {fill:#EC720D}
    .fil74 {fill:#EC730D}
    .fil75 {fill:#EC750D}
    .fil76 {fill:#EC760D}
    .fil77 {fill:#ED770C}
    .fil78 {fill:#ED780C}
    .fil79 {fill:#ED790C}
    .fil80 {fill:#ED7A0C}
    .fil81 {fill:#EE7B0C}
    .fil82 {fill:#EE7C0C}
    .fil83 {fill:#EE7D0B}
    .fil84 {fill:#EE7E0B}
    .fil85 {fill:#EE7F0B}
    .fil86 {fill:#EF800B}
    .fil87 {fill:#EF810B}
    .fil88 {fill:#EF820B}
    .fil89 {fill:#EF830B}
    .fil90 {fill:#F0840A}
    .fil91 {fill:#F0850A}
    .fil92 {fill:#F0860A}
    .fil93 {fill:#F0870A}
    .fil94 {fill:#F0880A}
    .fil95 {fill:#F1890A}
    .fil96 {fill:#F18A0A}
    .fil97 {fill:#F18B09}
    .fil98 {fill:#F18C09}
    .fil99 {fill:#F18D09}
    .fil100 {fill:#F28E09}
    .fil101 {fill:#F28F09}
    .fil102 {fill:#F29009}
    .fil103 {fill:#F29109}
    .fil104 {fill:#F29208}
    .fil105 {fill:#F39308}
    .fil106 {fill:#F39408}
    .fil107 {fill:#F39508}
    .fil108 {fill:#F39608}
    .fil109 {fill:#F49708}
    .fil110 {fill:#F49808}
    .fil111 {fill:#F49907}
    .fil112 {fill:#F49A07}
    .fil113 {fill:#F49B07}
    .fil114 {fill:#F59C07}
    .fil115 {fill:#F59D07}
    .fil116 {fill:#F59E07}
    .fil117 {fill:#F59F07}
    .fil118 {fill:#F5A006}
    .fil119 {fill:#F6A006}
    .fil120 {fill:#F6A106}
    .fil121 {fill:#F6A206}
    .fil122 {fill:#F6A306}
    .fil123 {fill:#F6A406}
    .fil124 {fill:#F7A506}
    .fil125 {fill:#F7A606}
    .fil126 {fill:#F7A705}
    .fil127 {fill:#F7A805}
    .fil128 {fill:#F7A905}
    .fil133 {fill:#F7AC1B}
    .fil134 {fill:#F7AC1C}
    .fil135 {fill:#F7AD1E}
    .fil136 {fill:#F7AD1F}
    .fil137 {fill:#F7AD20}
    .fil138 {fill:#F7AE21}
    .fil139 {fill:#F7AE22}
    .fil140 {fill:#F7AF23}
    .fil141 {fill:#F7AF25}
    .fil142 {fill:#F7B026}
    .fil143 {fill:#F7B027}
    .fil144 {fill:#F7B128}
    .fil145 {fill:#F7B12A}
    .fil146 {fill:#F7B12B}
    .fil147 {fill:#F7B22C}
    .fil148 {fill:#F7B22D}
    .fil149 {fill:#F7B32F}
    .fil129 {fill:#F8A905}
    .fil130 {fill:#F8AA05}
    .fil131 {fill:#F8AB05}
    .fil132 {fill:#F8AC05}
    .fil150 {fill:#F8B330}
    .fil151 {fill:#F8B431}
    .fil152 {fill:#F8B433}
    .fil153 {fill:#F8B534}
    .fil154 {fill:#F8B536}
    .fil155 {fill:#F8B637}
    .fil156 {fill:#F8B638}
    .fil157 {fill:#F8B73A}
    .fil158 {fill:#F8B73B}
    .fil159 {fill:#F8B83D}
    .fil160 {fill:#F8B83E}
    .fil161 {fill:#F8B940}
    .fil162 {fill:#F8BA41}
    .fil163 {fill:#F8BA42}
    .fil164 {fill:#F8BB44}
    .fil165 {fill:#F8BB45}
    .fil166 {fill:#F8BC47}
    .fil167 {fill:#F8BC48}
    .fil168 {fill:#F8BD4A}
    .fil169 {fill:#F9BD4B}
    .fil170 {fill:#F9BE4D}
    .fil171 {fill:#F9BE4E}
    .fil172 {fill:#F9BF50}
    .fil173 {fill:#F9C051}
    .fil174 {fill:#F9C053}
    .fil175 {fill:#F9C154}
    .fil176 {fill:#F9C156}
    .fil177 {fill:#F9C257}
    .fil178 {fill:#F9C259}
    .fil179 {fill:#F9C35B}
    .fil180 {fill:#F9C35C}
    .fil181 {fill:#F9C45E}
    .fil182 {fill:#F9C55F}
    .fil183 {fill:#F9C561}
    .fil184 {fill:#F9C662}
    .fil185 {fill:#F9C664}
    .fil186 {fill:#F9C765}
    .fil187 {fill:#FAC767}
    .fil188 {fill:#FAC868}
    .fil189 {fill:#FAC96A}
    .fil190 {fill:#FAC96B}
    .fil191 {fill:#FACA6D}
    .fil192 {fill:#FACA6F}
    .fil193 {fill:#FACB70}
    .fil194 {fill:#FACB72}
    .fil195 {fill:#FACC73}
    .fil196 {fill:#FACC75}
    .fil197 {fill:#FACD76}
    .fil198 {fill:#FACE78}
    .fil199 {fill:#FACE79}
    .fil200 {fill:#FACF7B}
    .fil201 {fill:#FACF7C}
    .fil202 {fill:#FAD07E}
    .fil203 {fill:#FAD07F}
    .fil204 {fill:#FAD181}
    .fil205 {fill:#FAD182}
    .fil290 {fill:#FAFAFA}
    .fil206 {fill:#FBD284}
    .fil207 {fill:#FBD385}
    .fil208 {fill:#FBD387}
    .fil209 {fill:#FBD488}
    .fil210 {fill:#FBD48A}
    .fil211 {fill:#FBD58B}
    .fil212 {fill:#FBD58D}
    .fil213 {fill:#FBD68E}
    .fil214 {fill:#FBD690}
    .fil215 {fill:#FBD791}
    .fil216 {fill:#FBD793}
    .fil217 {fill:#FBD894}
    .fil218 {fill:#FBD896}
    .fil219 {fill:#FBD997}
    .fil220 {fill:#FBD998}
    .fil221 {fill:#FBDA9A}
    .fil222 {fill:#FBDB9B}
    .fil223 {fill:#FBDB9D}
    .fil224 {fill:#FBDC9E}
    .fil225 {fill:#FCDC9F}
    .fil226 {fill:#FCDDA1}
    .fil227 {fill:#FCDDA2}
    .fil228 {fill:#FCDEA4}
    .fil229 {fill:#FCDEA5}
    .fil230 {fill:#FCDFA6}
    .fil231 {fill:#FCDFA8}
    .fil232 {fill:#FCE0A9}
    .fil233 {fill:#FCE0AA}
    .fil234 {fill:#FCE1AC}
    .fil235 {fill:#FCE1AD}
    .fil236 {fill:#FCE2AE}
    .fil237 {fill:#FCE2B0}
    .fil238 {fill:#FCE2B1}
    .fil239 {fill:#FCE3B2}
    .fil240 {fill:#FCE3B3}
    .fil241 {fill:#FCE4B5}
    .fil242 {fill:#FCE4B6}
    .fil243 {fill:#FCE5B7}
    .fil244 {fill:#FCE5B9}
    .fil245 {fill:#FCE6BA}
    .fil246 {fill:#FDE6BB}
    .fil247 {fill:#FDE7BC}
    .fil248 {fill:#FDE7BD}
    .fil249 {fill:#FDE7BF}
    .fil250 {fill:#FDE8C0}
    .fil251 {fill:#FDE8C1}
    .fil252 {fill:#FDE9C2}
    .fil253 {fill:#FDE9C3}
    .fil254 {fill:#FDEAC4}
    .fil255 {fill:#FDEAC6}
    .fil256 {fill:#FDEAC7}
    .fil257 {fill:#FDEBC8}
    .fil258 {fill:#FDEBC9}
    .fil259 {fill:#FDECCA}
    .fil260 {fill:#FDECCB}
    .fil261 {fill:#FDECCC}
    .fil262 {fill:#FDEDCD}
    .fil263 {fill:#FDEDCE}
    .fil264 {fill:#FDEECF}
    .fil265 {fill:#FDEED1}
    .fil266 {fill:#FDEED2}
    .fil267 {fill:#FDEFD3}
    .fil268 {fill:#FDEFD4}
    .fil269 {fill:#FDEFD5}
    .fil270 {fill:#FEF0D6}
    .fil271 {fill:#FEF0D7}
    .fil272 {fill:#FEF1D8}
    .fil273 {fill:#FEF1D9}
    .fil274 {fill:#FEF2DA}
    .fil275 {fill:#FEF2DB}
    .fil276 {fill:#FEF2DC}
    .fil277 {fill:#FEF3DD}
    .fil278 {fill:#FEF3DE}
    .fil279 {fill:#FEF3DF}
    .fil280 {fill:#FEF4E0}
    .fil281 {fill:#FEF4E1}
    .fil282 {fill:#FEF4E2}
    .fil283 {fill:#FEF5E3}
    .fil284 {fill:#FEF5E4}
    .fil285 {fill:#FEF5E5}
    .fil286 {fill:#FEF6E5}
    .fil287 {fill:#FEF6E6}
    .fil288 {fill:#FEF6E7}
    .fil289 {fill:#FEF7E8}
    .fil1 {fill:red}
    .fil292 {fill:white}
    .fil3 {fill:black;fill-rule:nonzero}
   ]]>
  </style>
    <clipPath id="id0">
     <path d="M88603.03 16682.27l321.46 -1397.95c65.39,-218.02 133.27,-459.2 199.74,-664.53 88.99,-274.94 185.58,-434.05 403.03,-589.96 -1114.18,-394.54 -2225.1,-2526.56 -2966.28,-3692.22 -1174.05,-1846.47 -4169.16,-7086.6 -5176.51,-8246.57 -1114.04,-1282.8 -2465.27,-2167.1 -4740.56,-1186 -2674.21,1153.12 -5080.96,3419.16 -7089.51,5469.97l-1749.85 1568c-1101.46,930.09 -1207.84,1052.97 -2209.17,2050.74 -293.83,292.79 -517.33,537.03 -847.48,812.95 -515.35,430.71 -388.96,421.08 -839.65,817.81 -452.16,398.01 -1357.45,1168.76 -1667.74,1733.98 98.13,132.68 2591.8,2727.03 2822.22,2855.49 398.54,-185.48 2665.66,-2341.28 3038.79,-2700.52 502.28,-483.55 892.09,-982.85 1396.38,-1492.14l4394.05 -4412.72c223.15,-182.3 210.3,-111.28 382.84,-337.48 182.75,-239.59 131.92,-188.13 351.79,-366.89 2234.63,-1817.06 3038.89,-3466.66 6090.93,106.82 453.94,531.52 858.31,1066.37 1270.52,1619.74 437.62,587.49 850.11,1078.65 1299.32,1656.66 207.27,266.74 376.04,544.44 607.48,836.12l1889.05 2512.97c490.39,668.18 709.36,953.87 1287.92,1596.88 461.75,513.19 891.44,1059.03 1531.24,1448.86z"/>
    </clipPath>
    <clipPath id="id1">
     <path d="M89527.26 14029.83c-217.46,155.91 -314.04,315.02 -403.03,589.96 -66.47,205.33 -134.35,446.51 -199.74,664.53l-321.46 1397.95c2325.88,1978.61 4460.2,-369.25 6245.97,-1607.57l5411.95 -4041.3c1136.39,-794.19 1899.07,-1338.38 3199.65,-204.25 1783.73,1555.45 3541.59,5659.19 5402.22,6442.36 534.87,225.11 1438.58,385.92 2072.27,243.86 -75.49,-473.11 -4965.62,-8735.32 -5522.68,-9427.96 -228.97,-284.69 -279.24,-435.34 -544.35,-686.7 -715.58,-678.5 -1758.48,-1028.7 -2797.6,-932.55 -1482.13,137.16 -2508.96,963.21 -3421.03,1572.73 -768.43,513.56 -2021.34,1609.22 -2822.28,2232.49 -87.83,68.35 -64.74,39.81 -163.68,123.7 -45.3,38.43 -102.02,100.19 -148.32,139.18 -149.22,125.66 -214.96,141.49 -377.31,271.84l-1445.21 1081.79c-866.61,564.75 -3106.58,2376.12 -4165.39,2139.95z"/>
    </clipPath>
 </defs>
 <g id="Слой_x0020_1">
  <metadata id="CorelCorpID_0Corel-Layer"/>
  <g id="_2119781099376">
   <polygon class="fil0" points="11262.8,49155.9 21289.11,49155.9 21289.11,12461.79 11262.8,12461.79 "/>
   <polygon class="fil1" points="36557.91,14995.75 36557.91,28922.86 31544.75,32842.97 36557.91,36753.55 36557.91,49155.9 26531.61,49155.9 26531.61,37856.12 11262.8,37731.2 11262.8,27704.9 26531.61,27829.81 26531.61,21345.88 "/>
   <polygon class="fil2" points="26553.74,21490.94 -0,6201.62 10642.34,0 36604.37,15044.54 "/>
  </g>
  <path class="fil3" d="M53225.59 49088.37l0 -4754.01 1964.13 0c356.24,0 663.43,69.71 922.7,208.06 259.28,138.35 458.63,331.17 600.26,578.46 140.53,246.2 210.24,532.69 210.24,859.5 0,327.91 -70.8,614.41 -214.59,859.52 -142.71,246.2 -346.43,435.76 -611.15,569.73 -264.72,135.1 -578.46,202.62 -942.3,202.62l-1211.39 0 0 -905.26 997.86 0c173.22,0 318.1,-30.51 434.66,-90.42 117.65,-61.01 205.9,-144.89 265.82,-253.83 61,-110.02 90.42,-236.39 90.42,-382.37 0,-147.06 -29.43,-274.51 -90.42,-381.27 -59.92,-107.85 -149.24,-191.74 -266.9,-250.55 -117.65,-57.74 -261.44,-87.15 -433.58,-87.15l-566.48 0 0 3826.96 -1149.28 0zm5860.83 67.55c-372.58,0 -693.94,-74.08 -964.09,-222.24 -270.17,-147.06 -477.15,-358.4 -622.04,-632.93 -144.89,-275.61 -216.79,-602.42 -216.79,-981.51 0,-368.21 71.9,-689.59 217.87,-966.27 144.89,-276.71 350.79,-491.32 614.41,-644.91 264.72,-154.7 577.36,-230.95 935.78,-230.95 253.81,0 485.86,39.22 696.1,117.65 211.33,79.52 392.18,196.09 545.78,350.79 153.6,154.68 272.35,345.33 357.32,571.91 84.97,226.6 127.46,486.94 127.46,778.91l0 283.24 -3098.18 0 0 -659.08 2042.56 0c-2.18,-120.93 -30.51,-228.78 -86.05,-322.46 -55.56,-94.78 -131.82,-168.86 -228.78,-222.22 -96.96,-53.38 -208.08,-79.54 -333.34,-79.54 -126.37,0 -239.66,28.33 -340.98,84.97 -100.21,55.56 -179.75,132.9 -238.57,228.78 -58.84,96.96 -90.42,206.98 -92.6,328.99l0 671.05c0,144.89 28.33,272.35 84.97,381.29 57.74,108.92 138.35,193.89 244.02,254.91 105.67,59.92 230.95,90.42 375.84,90.42 101.31,0 191.72,-14.16 274.51,-42.49 81.71,-27.23 152.52,-68.63 211.35,-123.09 58.82,-53.38 102.39,-119.83 131.8,-199.37l1042.53 30.51c-43.57,233.13 -138.35,436.83 -284.32,608.95 -147.06,173.22 -337.7,306.11 -575.19,401.99 -236.41,94.76 -509.84,142.71 -821.38,142.71zm4433.74 -1278.94l872.59 -2354.13 831.17 0 -1339.91 3565.52 -728.8 0 -1303.97 -3565.52 829.02 0 839.91 2354.13zm-1083.93 -2354.13l0 3565.52 -1075.21 0 0 -3565.52 1075.21 0zm2232.12 3565.52l0 -3565.52 1061.05 0 0 3565.52 -1061.05 0zm3415.18 67.55c-374.76,0 -696.12,-77.36 -964.11,-230.95 -269.07,-154.7 -474.95,-369.31 -619.84,-645.99 -144.89,-275.63 -216.79,-595.89 -216.79,-961.92 0,-366.03 71.9,-687.41 216.79,-964.09 144.89,-276.71 350.77,-491.32 619.84,-644.91 267.99,-154.7 589.35,-230.95 964.11,-230.95 374.74,0 696.1,76.26 964.09,230.95 269.07,153.6 474.95,368.21 619.84,644.91 144.89,276.69 216.79,598.06 216.79,964.09 0,366.03 -71.9,686.29 -216.79,961.92 -144.89,276.69 -350.77,491.3 -619.84,645.99 -267.99,153.6 -589.35,230.95 -964.09,230.95zm6.53 -856.25c136.17,0 251.63,-42.49 346.41,-125.29 93.68,-83.87 166.68,-200.45 216.79,-348.59 50.11,-148.16 75.16,-320.28 75.16,-515.29 0,-198.25 -25.05,-371.46 -75.16,-519.63 -50.11,-149.24 -123.11,-264.72 -216.79,-348.59 -94.78,-83.89 -210.24,-125.29 -346.41,-125.29 -140.53,0 -259.28,41.4 -356.24,125.29 -96.94,83.87 -169.94,199.35 -220.05,348.59 -50.11,148.16 -75.16,321.38 -75.16,519.63 0,195.01 25.05,367.13 75.16,515.29 50.11,148.14 123.11,264.72 220.05,348.59 96.96,82.79 215.71,125.29 356.24,125.29zm4891.27 -1436.89l0 864.96 -1829.05 0 0 -864.96 1829.05 0zm-1439.05 -1339.93l0 3565.52 -1075.21 0 0 -3565.52 1075.21 0zm2123.18 0l0 3565.52 -1067.58 0 0 -3565.52 1067.58 0zm379.1 868.23l0 -868.23 3342.2 0 0 868.23 -1139.49 0 0 2697.29 -1077.39 0 0 -2697.29 -1125.32 0zm8357.67 -2167.85l306.11 749.48c-96.94,76.26 -203.7,132.92 -319.18,172.12 -114.38,39.22 -254.91,65.37 -420.49,78.44 -165.58,14.16 -374.74,21.8 -627.47,23.97 -284.34,1.08 -515.29,40.3 -690.66,116.56 -176.49,77.36 -310.49,201.55 -400.89,373.66 -90.42,173.22 -150.34,401.97 -179.75,688.49l29.41 0c102.41,-214.61 248.38,-384.55 436.83,-508.74 188.46,-123.11 432.48,-185.2 730.98,-185.2 311.55,0 581.72,66.45 812.67,200.45 230.93,134 408.5,324.63 533.79,570.83 125.27,247.3 188.46,540.32 188.46,879.12 0,358.42 -71.9,671.06 -216.79,937.96 -143.81,265.8 -349.69,471.7 -616.58,616.58 -267.99,145.96 -588.27,218.97 -960.84,218.97 -373.64,0 -693.92,-76.26 -962.99,-227.68 -267.99,-151.44 -474.97,-374.76 -618.76,-669.97 -144.89,-294.15 -217.89,-656.9 -217.89,-1087.2l0 -260.36c0,-881.3 178.67,-1530.57 533.79,-1946.71 356.24,-416.14 875.87,-626.39 1560,-629.65 172.12,-1.1 327.89,-1.1 468.42,-1.1 139.43,1.1 262.54,-5.45 367.11,-20.7 105.69,-14.16 193.91,-44.67 264.72,-89.32zm-1387.84 4076.44c129.62,0 241.82,-34.86 336.6,-104.59 94.78,-69.73 166.68,-169.94 217.89,-299.58 51.19,-130.72 77.34,-286.49 77.34,-469.52 0,-181.93 -26.15,-337.7 -78.44,-466.24 -51.21,-128.54 -125.29,-226.6 -218.97,-293.05 -94.78,-67.53 -206.98,-101.31 -336.62,-101.31 -99.11,0 -188.46,18.52 -269.07,56.66 -80.61,38.12 -149.24,93.68 -204.8,167.76 -55.56,72.98 -98.04,163.41 -127.44,270.15 -29.41,106.77 -43.57,228.78 -43.57,366.03 0,272.35 56.64,485.86 171.02,640.56 114.4,155.77 273.45,233.13 476.07,233.13zm4052.46 856.25c-372.58,0 -693.94,-74.08 -964.09,-222.24 -270.17,-147.06 -477.15,-358.4 -622.04,-632.93 -144.89,-275.61 -216.79,-602.42 -216.79,-981.51 0,-368.21 71.9,-689.59 217.87,-966.27 144.89,-276.71 350.79,-491.32 614.41,-644.91 264.72,-154.7 577.36,-230.95 935.78,-230.95 253.81,0 485.86,39.22 696.1,117.65 211.33,79.52 392.18,196.09 545.78,350.79 153.6,154.68 272.35,345.33 357.32,571.91 84.97,226.6 127.46,486.94 127.46,778.91l0 283.24 -3098.18 0 0 -659.08 2042.56 0c-2.18,-120.93 -30.51,-228.78 -86.05,-322.46 -55.56,-94.78 -131.82,-168.86 -228.78,-222.22 -96.96,-53.38 -208.08,-79.54 -333.34,-79.54 -126.37,0 -239.66,28.33 -340.98,84.97 -100.21,55.56 -179.75,132.9 -238.57,228.78 -58.84,96.96 -90.42,206.98 -92.6,328.99l0 671.05c0,144.89 28.33,272.35 84.97,381.29 57.74,108.92 138.35,193.89 244.02,254.91 105.67,59.92 230.95,90.42 375.84,90.42 101.31,0 191.72,-14.16 274.51,-42.49 81.71,-27.23 152.52,-68.63 211.35,-123.09 58.82,-53.38 102.39,-119.83 131.8,-199.37l1042.53 30.51c-43.57,233.13 -138.35,436.83 -284.32,608.95 -147.06,173.22 -337.7,306.11 -575.19,401.99 -236.41,94.76 -509.84,142.71 -821.38,142.71zm2105.74 -1112.25l1081.75 0c2.18,105.67 49.03,188.46 137.27,250.55 89.32,62.09 204.8,92.6 345.31,92.6 142.71,0 260.36,-33.78 354.06,-102.41 93.68,-68.63 140.53,-164.48 140.53,-286.49 0,-75.18 -19.62,-140.53 -57.74,-196.09 -37.04,-56.64 -90.42,-101.31 -156.87,-134 -67.55,-32.69 -145.98,-49.01 -234.21,-49.01l-477.15 0 0 -698.3 477.15 0c131.8,0 235.29,-30.51 311.55,-92.6 75.18,-62.09 113.3,-140.53 113.3,-235.31 0,-106.75 -38.12,-192.81 -114.38,-259.26 -76.26,-66.45 -178.67,-100.21 -305.03,-100.21 -125.27,0 -229.86,28.31 -311.55,86.05 -81.71,57.74 -123.11,131.82 -125.29,223.32l-1081.75 0c2.18,-222.22 67.55,-411.78 198.27,-569.73 130.72,-159.05 307.19,-281.06 529.44,-367.13 222.22,-86.05 469.52,-128.54 741.87,-128.54 305.02,0 567.56,39.22 787.6,118.75 221.14,80.59 390,194.99 507.66,344.23 117.65,149.24 176.47,330.09 176.47,543.6 0,186.28 -64.27,343.15 -191.74,471.7 -127.44,128.54 -311.55,220.05 -551.21,273.43l0 37.04c150.34,8.71 287.59,45.75 412.86,113.3 125.29,67.53 226.6,161.23 303.94,283.24 77.36,120.91 116.58,267.97 116.58,439.01 0,222.22 -67.55,410.68 -202.62,567.56 -134,157.97 -318.1,277.8 -553.41,361.67 -234.21,82.79 -503.28,125.29 -806.12,125.29 -295.23,0 -559.94,-41.4 -793.07,-124.19 -232.03,-82.79 -418.31,-206.98 -555.57,-372.58 -137.27,-165.58 -210.26,-370.39 -217.89,-615.48zm4920.7 0l1081.75 0c2.18,105.67 49.03,188.46 137.27,250.55 89.32,62.09 204.8,92.6 345.31,92.6 142.71,0 260.36,-33.78 354.06,-102.41 93.68,-68.63 140.53,-164.48 140.53,-286.49 0,-75.18 -19.62,-140.53 -57.74,-196.09 -37.04,-56.64 -90.42,-101.31 -156.87,-134 -67.55,-32.69 -145.98,-49.01 -234.21,-49.01l-477.15 0 0 -698.3 477.15 0c131.8,0 235.29,-30.51 311.55,-92.6 75.18,-62.09 113.3,-140.53 113.3,-235.31 0,-106.75 -38.12,-192.81 -114.38,-259.26 -76.26,-66.45 -178.67,-100.21 -305.03,-100.21 -125.27,0 -229.86,28.31 -311.55,86.05 -81.71,57.74 -123.11,131.82 -125.29,223.32l-1081.75 0c2.18,-222.22 67.55,-411.78 198.27,-569.73 130.72,-159.05 307.19,-281.06 529.44,-367.13 222.22,-86.05 469.52,-128.54 741.87,-128.54 305.02,0 567.56,39.22 787.6,118.75 221.14,80.59 390,194.99 507.66,344.23 117.65,149.24 176.47,330.09 176.47,543.6 0,186.28 -64.27,343.15 -191.74,471.7 -127.44,128.54 -311.55,220.05 -551.21,273.43l0 37.04c150.34,8.71 287.59,45.75 412.86,113.3 125.29,67.53 226.6,161.23 303.94,283.24 77.36,120.91 116.58,267.97 116.58,439.01 0,222.22 -67.55,410.68 -202.62,567.56 -134,157.97 -318.1,277.8 -553.41,361.67 -234.21,82.79 -503.28,125.29 -806.12,125.29 -295.23,0 -559.94,-41.4 -793.07,-124.19 -232.03,-82.79 -418.31,-206.98 -555.57,-372.58 -137.27,-165.58 -210.26,-370.39 -217.89,-615.48zm4688.66 1104.62c-227.68,0 -429.22,-38.12 -604.6,-114.38 -175.39,-76.26 -314.84,-192.83 -416.16,-348.61 -101.31,-154.7 -151.42,-350.77 -151.42,-586.08 0,-198.27 34.86,-364.95 104.59,-501.11 69.71,-136.17 165.58,-246.22 287.59,-332.27 122.01,-84.97 262.54,-149.24 422.67,-192.81 159.05,-44.67 328.99,-74.08 510.92,-90.42 202.62,-18.52 364.95,-38.12 489.14,-58.82 124.19,-20.7 213.51,-51.21 270.15,-90.42 56.66,-39.22 84.97,-95.88 84.97,-167.76l0 -11.99c0,-118.75 -41.4,-211.33 -123.09,-276.71 -81.71,-64.27 -192.81,-96.96 -332.27,-96.96 -149.24,0 -270.15,32.69 -361.67,96.96 -91.5,65.37 -149.24,154.7 -174.29,270.17l-1046.88 -38.14c31.59,-215.69 111.12,-409.6 240.74,-580.62 128.54,-171.04 307.21,-306.11 533.79,-404.17 226.6,-98.04 498.95,-147.06 818.13,-147.06 227.68,0 436.83,26.15 628.57,79.54 192.81,53.36 359.5,130.72 502.2,232.03 141.61,101.31 251.63,225.5 330.07,372.56 78.44,147.06 117.65,314.82 117.65,504.38l0 2422.76 -1067.58 0 0 -496.75 -28.33 0c-63.17,120.91 -143.79,223.32 -242.92,306.11 -98.06,83.87 -213.51,147.06 -345.33,188.46 -131.82,41.4 -281.06,62.09 -446.64,62.09zm350.79 -741.87c121.99,0 232.03,-25.05 330.07,-75.16 98.04,-49.03 176.47,-117.65 235.31,-204.8 58.82,-87.15 88.25,-189.56 88.25,-305.03l0 -338.78c-31.61,16.34 -70.82,31.59 -116.58,45.75 -45.75,14.16 -95.86,27.23 -150.34,39.22 -53.36,13.07 -108.92,23.95 -166.66,32.69 -57.74,9.79 -112.2,18.52 -164.5,26.13 -106.75,16.34 -198.25,42.49 -273.43,78.44 -75.16,35.96 -131.82,81.71 -171.04,138.35 -40.3,56.64 -59.9,123.11 -59.9,200.45 0,117.65 42.47,208.08 126.37,269.07 84.97,62.09 191.72,93.68 322.46,93.68zm5541.62 -4183.18l306.11 749.48c-96.94,76.26 -203.7,132.92 -319.18,172.12 -114.38,39.22 -254.91,65.37 -420.49,78.44 -165.58,14.16 -374.74,21.8 -627.47,23.97 -284.34,1.08 -515.29,40.3 -690.66,116.56 -176.49,77.36 -310.49,201.55 -400.89,373.66 -90.42,173.22 -150.34,401.97 -179.75,688.49l29.41 0c102.41,-214.61 248.38,-384.55 436.83,-508.74 188.46,-123.11 432.48,-185.2 730.98,-185.2 311.55,0 581.72,66.45 812.67,200.45 230.93,134 408.5,324.63 533.79,570.83 125.27,247.3 188.46,540.32 188.46,879.12 0,358.42 -71.9,671.06 -216.79,937.96 -143.81,265.8 -349.69,471.7 -616.58,616.58 -267.99,145.96 -588.27,218.97 -960.84,218.97 -373.64,0 -693.92,-76.26 -962.99,-227.68 -267.99,-151.44 -474.97,-374.76 -618.76,-669.97 -144.89,-294.15 -217.89,-656.9 -217.89,-1087.2l0 -260.36c0,-881.3 178.67,-1530.57 533.79,-1946.71 356.24,-416.14 875.87,-626.39 1560,-629.65 172.12,-1.1 327.89,-1.1 468.42,-1.1 139.43,1.1 262.54,-5.45 367.11,-20.7 105.69,-14.16 193.91,-44.67 264.72,-89.32zm-1387.84 4076.44c129.62,0 241.82,-34.86 336.6,-104.59 94.78,-69.73 166.68,-169.94 217.89,-299.58 51.19,-130.72 77.34,-286.49 77.34,-469.52 0,-181.93 -26.15,-337.7 -78.44,-466.24 -51.21,-128.54 -125.29,-226.6 -218.97,-293.05 -94.78,-67.53 -206.98,-101.31 -336.62,-101.31 -99.11,0 -188.46,18.52 -269.07,56.66 -80.61,38.12 -149.24,93.68 -204.8,167.76 -55.56,72.98 -98.04,163.41 -127.44,270.15 -29.41,106.77 -43.57,228.78 -43.57,366.03 0,272.35 56.64,485.86 171.02,640.56 114.4,155.77 273.45,233.13 476.07,233.13zm4050.28 856.25c-374.76,0 -696.12,-77.36 -964.11,-230.95 -269.07,-154.7 -474.95,-369.31 -619.84,-645.99 -144.89,-275.63 -216.79,-595.89 -216.79,-961.92 0,-366.03 71.9,-687.41 216.79,-964.09 144.89,-276.71 350.77,-491.32 619.84,-644.91 267.99,-154.7 589.35,-230.95 964.11,-230.95 374.74,0 696.1,76.26 964.09,230.95 269.07,153.6 474.95,368.21 619.84,644.91 144.89,276.69 216.79,598.06 216.79,964.09 0,366.03 -71.9,686.29 -216.79,961.92 -144.89,276.69 -350.77,491.3 -619.84,645.99 -267.99,153.6 -589.35,230.95 -964.09,230.95zm6.53 -856.25c136.17,0 251.63,-42.49 346.41,-125.29 93.68,-83.87 166.68,-200.45 216.79,-348.59 50.11,-148.16 75.16,-320.28 75.16,-515.29 0,-198.25 -25.05,-371.46 -75.16,-519.63 -50.11,-149.24 -123.11,-264.72 -216.79,-348.59 -94.78,-83.89 -210.24,-125.29 -346.41,-125.29 -140.53,0 -259.28,41.4 -356.24,125.29 -96.94,83.87 -169.94,199.35 -220.05,348.59 -50.11,148.16 -75.16,321.38 -75.16,519.63 0,195.01 25.05,367.13 75.16,515.29 50.11,148.14 123.11,264.72 220.05,348.59 96.96,82.79 215.71,125.29 356.24,125.29zm2070.89 -1908.59l0 -868.23 3342.2 0 0 868.23 -1139.49 0 0 2697.29 -1077.39 0 0 -2697.29 -1125.32 0z"/>
  <path class="fil3" d="M55903.2 35344.68l1383.7 0c412.57,0 693.96,-71.92 842.06,-217.91 150.22,-143.89 224.26,-410.47 224.26,-799.76l0 -353.32c0,-391.42 -76.16,-662.24 -226.38,-808.22 -150.22,-145.98 -431.62,-220.03 -839.94,-220.03l-1383.7 0 0 2399.24zm-2475.4 4773.1l0 -9228.83 3721.57 0c1421.78,0 2395.02,186.18 2923.94,560.67 528.95,374.49 793.41,1030.37 793.41,1967.62l0 742.63c0,624.14 -150.22,1112.88 -452.77,1466.2 -300.44,353.34 -746.85,567.03 -1337.15,641.07 624.14,103.67 1079.02,311.02 1362.53,619.92 285.63,311.02 427.38,753.19 427.38,1326.57l0 1904.15 -2526.19 0 0 -1660.86c0,-393.52 -76.16,-664.34 -226.38,-810.32 -150.22,-145.98 -431.62,-220.05 -839.94,-220.05l-1371.01 0 0 2691.22 -2475.4 0zm9112.47 0l0 -9228.83 6933.26 0 0 2056.49 -4457.87 0 0 1599.49 4328.79 0 0 1777.22 -4328.79 0 0 1739.14 4557.3 0 0 2056.49 -7032.69 0zm16124.02 -9228.83l3615.78 0 0 9228.83 -2411.93 0 0 -6780.94 -1853.4 6780.94 -2475.4 0 -1866.09 -6854.98 0 6854.98 -2411.93 0 0 -9228.83 3615.78 0 1891.48 6675.14 1895.7 -6675.14zm7730.89 3861.22l0 1519.09c0,789.17 88.87,1286.37 266.6,1487.37 177.71,203.11 550.07,304.66 1117.1,304.66l459.12 0c564.89,0 939.37,-103.67 1121.34,-311.02 181.95,-205.21 272.92,-700.3 272.92,-1481.01l0 -1519.09c0,-784.95 -90.97,-1282.13 -272.92,-1491.61 -181.97,-209.45 -556.45,-313.12 -1121.34,-313.12l-459.12 0c-562.79,0 -933.04,103.67 -1112.88,311 -179.83,205.23 -270.82,704.55 -270.82,1493.72zm-2526.17 -205.23c0,-1400.61 262.34,-2380.21 787.05,-2936.64 524.69,-556.45 1438.69,-833.61 2744.1,-833.61l1214.43 0c1309.64,0 2227.88,279.28 2754.69,837.85 526.83,558.55 789.17,1536.02 789.17,2932.4l0 1916.87c0,1396.38 -262.34,2373.85 -789.17,2932.4 -526.81,558.55 -1445.05,837.83 -2754.69,837.83l-1214.43 0c-1305.4,0 -2219.41,-277.16 -2744.1,-833.59 -524.71,-556.45 -787.05,-1536.02 -787.05,-2936.64l0 -1916.87zm9874.14 5572.85l0 -9228.83 3681.37 0 2868.93 6854.98 0 -6854.98 2361.17 0 0 9228.83 -3681.39 0 -2868.93 -6916.33 0 6916.33 -2361.16 0zm12607.66 0l0 -7172.34 -2373.87 0 0 -2056.49 7235.83 0 0 2056.49 -2361.16 0 0 7172.34 -2500.8 0z"/>
  <g>
   <g style="clip-path:url(#id0)">
    <polygon class="fil4" points="64312.33,-2041.21 64552.49,-2008.9 62153.51,15822.59 61913.35,15790.28 "/>
    <polygon id="_1" class="fil5" points="64451.25,-2022.51 64754.91,-1981.67 62355.93,15849.82 62052.27,15808.98 "/>
    <polygon id="_2" class="fil6" points="64653.7,-1995.28 64957.36,-1954.44 62558.38,15877.05 62254.72,15836.21 "/>
    <polygon id="_3" class="fil7" points="64856.13,-1968.05 65159.79,-1927.2 62760.81,15904.3 62457.15,15863.44 "/>
    <polygon id="_4" class="fil8" points="65058.58,-1940.82 65362.22,-1899.97 62963.24,15931.53 62659.59,15890.69 "/>
    <polygon id="_5" class="fil9" points="65261,-1913.59 65564.66,-1872.72 63165.68,15958.77 62862.02,15917.92 "/>
    <polygon id="_6" class="fil10" points="65463.45,-1886.34 65767.09,-1845.49 63368.11,15986 63064.47,15945.15 "/>
    <polygon id="_7" class="fil11" points="65665.88,-1859.11 65969.54,-1818.26 63570.56,16013.23 63266.9,15972.38 "/>
    <polygon id="_8" class="fil12" points="65868.31,-1831.88 66171.97,-1791.03 63772.99,16040.48 63469.35,15999.61 "/>
    <polygon id="_9" class="fil12" points="66070.75,-1804.65 66374.42,-1763.8 63975.43,16067.71 63671.77,16026.86 "/>
    <polygon id="_10" class="fil13" points="66273.18,-1777.41 66576.84,-1736.55 64177.86,16094.94 63874.2,16054.09 "/>
    <polygon id="_11" class="fil14" points="66475.63,-1750.16 66779.27,-1709.32 64380.29,16122.17 64076.65,16081.32 "/>
    <polygon id="_12" class="fil15" points="66678.06,-1722.93 66981.72,-1682.09 64582.74,16149.4 64279.08,16108.56 "/>
    <polygon id="_13" class="fil16" points="66880.5,-1695.7 67184.15,-1654.85 64785.17,16176.65 64481.52,16135.79 "/>
    <polygon id="_14" class="fil17" points="67082.93,-1668.47 67386.59,-1627.62 64987.61,16203.88 64683.95,16163.04 "/>
    <polygon id="_15" class="fil18" points="67285.38,-1641.24 67589.02,-1600.37 65190.04,16231.12 64886.4,16190.27 "/>
    <polygon id="_16" class="fil19" points="67487.81,-1613.99 67791.47,-1573.14 65392.49,16258.35 65088.83,16217.5 "/>
    <polygon id="_17" class="fil20" points="67690.24,-1586.76 67993.9,-1545.91 65594.92,16285.58 65291.26,16244.73 "/>
    <polygon id="_18" class="fil21" points="67892.68,-1559.53 68196.33,-1518.68 65797.34,16312.83 65493.7,16271.96 "/>
    <polygon id="_19" class="fil22" points="68095.11,-1532.3 68398.77,-1491.45 65999.79,16340.06 65696.13,16299.21 "/>
    <polygon id="_20" class="fil23" points="68297.56,-1505.06 68601.2,-1464.2 66202.22,16367.29 65898.58,16326.44 "/>
    <polygon id="_21" class="fil24" points="68499.99,-1477.81 68803.65,-1436.97 66404.67,16394.52 66101.01,16353.67 "/>
    <polygon id="_22" class="fil25" points="68702.43,-1450.58 69006.08,-1409.74 66607.1,16421.75 66303.45,16380.91 "/>
    <polygon id="_23" class="fil26" points="68904.86,-1423.35 69208.52,-1382.51 66809.54,16449 66505.88,16408.14 "/>
    <polygon id="_24" class="fil27" points="69107.29,-1396.12 69410.95,-1355.27 67011.97,16476.23 66708.31,16435.39 "/>
    <polygon id="_25" class="fil28" points="69309.74,-1368.89 69613.38,-1328.02 67214.42,16503.46 66910.76,16462.62 "/>
    <polygon id="_26" class="fil29" points="69512.17,-1341.64 69815.83,-1300.79 67416.85,16530.7 67113.18,16489.85 "/>
    <polygon id="_27" class="fil30" points="69714.61,-1314.41 70018.25,-1273.56 67619.27,16557.93 67315.63,16517.08 "/>
    <polygon id="_28" class="fil31" points="69917.04,-1287.18 70220.7,-1246.33 67821.72,16585.18 67518.06,16544.31 "/>
    <polygon id="_29" class="fil32" points="70119.49,-1259.95 70423.13,-1219.08 68024.15,16612.41 67720.51,16571.56 "/>
    <polygon id="_30" class="fil33" points="70321.92,-1232.71 70625.58,-1191.85 68226.6,16639.64 67922.94,16598.79 "/>
    <polygon id="_31" class="fil34" points="70524.34,-1205.46 70828.01,-1164.62 68429.03,16666.87 68125.36,16626.02 "/>
    <polygon id="_32" class="fil35" points="70726.79,-1178.23 71030.45,-1137.39 68631.47,16694.1 68327.81,16653.26 "/>
    <polygon id="_33" class="fil36" points="70929.22,-1151 71232.88,-1110.16 68833.9,16721.35 68530.24,16680.49 "/>
    <polygon id="_34" class="fil37" points="71131.67,-1123.77 71435.31,-1082.9 69036.33,16748.58 68732.69,16707.74 "/>
    <polygon id="_35" class="fil38" points="71334.09,-1096.54 71637.76,-1055.67 69238.78,16775.81 68935.11,16734.97 "/>
    <polygon id="_36" class="fil39" points="71536.54,-1069.29 71840.18,-1028.44 69441.2,16803.05 69137.56,16762.2 "/>
    <polygon id="_37" class="fil40" points="71738.97,-1042.06 72042.63,-1001.21 69643.65,16830.28 69339.99,16789.43 "/>
    <polygon id="_38" class="fil41" points="71941.4,-1014.83 72245.06,-973.98 69846.08,16857.53 69542.44,16816.66 "/>
    <polygon id="_39" class="fil42" points="72143.85,-987.6 72447.51,-946.73 70048.53,16884.76 69744.87,16843.91 "/>
    <polygon id="_40" class="fil43" points="72346.27,-960.37 72649.94,-919.5 70250.95,16911.99 69947.29,16871.14 "/>
    <polygon id="_41" class="fil44" points="72548.72,-933.11 72852.36,-892.27 70453.38,16939.22 70149.74,16898.37 "/>
    <polygon id="_42" class="fil45" points="72751.15,-905.88 73054.81,-865.04 70655.83,16966.45 70352.17,16925.6 "/>
    <polygon id="_43" class="fil46" points="72953.6,-878.65 73257.24,-837.81 70858.26,16993.7 70554.62,16952.84 "/>
    <polygon id="_44" class="fil47" points="73156.02,-851.42 73459.69,-810.56 71060.71,17020.93 70757.04,16980.09 "/>
    <polygon id="_45" class="fil48" points="73358.47,-824.19 73662.11,-783.32 71263.13,17048.16 70959.49,17007.32 "/>
    <polygon id="_46" class="fil49" points="73560.9,-796.94 73864.56,-756.09 71465.58,17075.4 71161.92,17034.55 "/>
    <polygon id="_47" class="fil50" points="73763.33,-769.71 74066.99,-728.86 71668.01,17102.63 71364.35,17061.78 "/>
    <polygon id="_48" class="fil51" points="73965.78,-742.48 74269.42,-701.63 71870.46,17129.88 71566.79,17089.01 "/>
    <polygon id="_49" class="fil52" points="74168.2,-715.25 74471.86,-674.38 72072.88,17157.11 71769.22,17116.26 "/>
    <polygon id="_50" class="fil53" points="74370.65,-688.02 74674.29,-647.15 72275.31,17184.34 71971.67,17143.49 "/>
    <polygon id="_51" class="fil54" points="74573.08,-660.76 74876.74,-619.92 72477.76,17211.57 72174.1,17170.72 "/>
    <polygon id="_52" class="fil55" points="74775.53,-633.53 75079.17,-592.69 72680.19,17238.8 72376.55,17197.95 "/>
    <polygon id="_53" class="fil56" points="74977.95,-606.3 75281.62,-565.46 72882.63,17266.05 72578.97,17225.19 "/>
    <polygon id="_54" class="fil57" points="75180.38,-579.07 75484.04,-538.21 73085.06,17293.28 72781.4,17252.44 "/>
    <polygon id="_55" class="fil58" points="75382.83,-551.84 75686.49,-510.97 73287.51,17320.51 72983.85,17279.67 "/>
    <polygon id="_56" class="fil59" points="75585.26,-524.59 75888.92,-483.74 73489.94,17347.74 73186.28,17306.9 "/>
    <polygon id="_57" class="fil60" points="75787.7,-497.36 76091.35,-456.51 73692.37,17375 73388.72,17334.13 "/>
    <polygon id="_58" class="fil61" points="75990.13,-470.13 76293.79,-429.28 73894.81,17402.23 73591.15,17361.36 "/>
    <polygon id="_59" class="fil62" points="76192.58,-442.9 76496.22,-402.03 74097.24,17429.46 73793.6,17388.61 "/>
    <polygon id="_60" class="fil63" points="76395.01,-415.67 76698.67,-374.8 74299.69,17456.69 73996.03,17415.84 "/>
    <polygon id="_61" class="fil64" points="76597.44,-388.42 76901.1,-347.57 74502.12,17483.92 74198.46,17443.07 "/>
    <polygon id="_62" class="fil65" points="76799.88,-361.18 77103.54,-320.34 74704.56,17511.17 74400.9,17470.3 "/>
    <polygon id="_63" class="fil66" points="77002.31,-333.95 77305.97,-293.11 74906.99,17538.4 74603.33,17497.54 "/>
    <polygon id="_64" class="fil67" points="77204.76,-306.72 77508.4,-265.86 75109.42,17565.63 74805.78,17524.79 "/>
    <polygon id="_65" class="fil68" points="77407.19,-279.49 77710.85,-238.62 75311.87,17592.86 75008.21,17552.02 "/>
    <polygon id="_66" class="fil69" points="77609.63,-252.24 77913.28,-211.39 75514.3,17620.09 75210.65,17579.25 "/>
    <polygon id="_67" class="fil70" points="77812.06,-225.01 78115.72,-184.16 75716.74,17647.35 75413.08,17606.48 "/>
    <polygon id="_68" class="fil71" points="78014.49,-197.78 78318.15,-156.93 75919.17,17674.58 75615.53,17633.71 "/>
    <polygon id="_69" class="fil72" points="78216.94,-170.55 78520.6,-129.68 76121.62,17701.81 75817.96,17660.96 "/>
    <polygon id="_70" class="fil73" points="78419.37,-143.32 78723.03,-102.45 76324.05,17729.04 76020.39,17688.19 "/>
    <polygon id="_71" class="fil74" points="78621.81,-116.07 78925.45,-75.22 76526.47,17756.27 76222.83,17715.42 "/>
    <polygon id="_72" class="fil75" points="78824.24,-88.83 79127.9,-47.99 76728.92,17783.52 76425.26,17742.65 "/>
    <polygon id="_73" class="fil76" points="79026.69,-61.6 79330.33,-20.76 76931.35,17810.75 76627.71,17769.88 "/>
    <polygon id="_74" class="fil77" points="79229.12,-34.37 79532.78,6.49 77133.8,17837.98 76830.14,17797.14 "/>
    <polygon id="_75" class="fil78" points="79431.56,-7.14 79735.21,33.72 77336.23,17865.21 77032.58,17824.37 "/>
    <polygon id="_76" class="fil79" points="79633.99,20.11 79937.65,60.96 77538.67,17892.44 77235.01,17851.6 "/>
    <polygon id="_77" class="fil80" points="79836.42,47.34 80140.08,88.19 77741.1,17919.69 77437.44,17878.83 "/>
    <polygon id="_78" class="fil81" points="80038.87,74.57 80342.51,115.42 77943.55,17946.93 77639.89,17906.06 "/>
    <polygon id="_79" class="fil82" points="80241.29,101.8 80544.96,142.67 78145.98,17974.16 77842.31,17933.31 "/>
    <polygon id="_80" class="fil83" points="80443.74,129.03 80747.38,169.9 78348.4,18001.39 78044.76,17960.54 "/>
    <polygon id="_81" class="fil84" points="80646.17,156.28 80949.83,197.13 78550.85,18028.62 78247.19,17987.77 "/>
    <polygon id="_82" class="fil85" points="80848.62,183.52 81152.26,224.36 78753.28,18055.87 78449.64,18015 "/>
    <polygon id="_83" class="fil86" points="81051.05,210.75 81354.71,251.59 78955.73,18083.1 78652.07,18042.23 "/>
    <polygon id="_84" class="fil87" points="81253.47,237.98 81557.14,278.84 79158.15,18110.33 78854.49,18069.49 "/>
    <polygon id="_85" class="fil88" points="81455.92,265.21 81759.58,306.07 79360.6,18137.56 79056.94,18096.72 "/>
    <polygon id="_86" class="fil89" points="81658.35,292.46 81962.01,333.31 79563.03,18164.79 79259.37,18123.95 "/>
    <polygon id="_87" class="fil90" points="81860.8,319.69 82164.44,360.54 79765.46,18192.04 79461.82,18151.18 "/>
    <polygon id="_88" class="fil91" points="82063.22,346.92 82366.89,387.77 79967.91,18219.28 79664.24,18178.41 "/>
    <polygon id="_89" class="fil92" points="82265.67,374.15 82569.31,415.02 80170.33,18246.51 79866.69,18205.66 "/>
    <polygon id="_90" class="fil93" points="82468.1,401.4 82771.76,442.25 80372.78,18273.74 80069.12,18232.89 "/>
    <polygon id="_91" class="fil94" points="82670.53,428.63 82974.19,469.48 80575.21,18300.97 80271.55,18260.12 "/>
    <polygon id="_92" class="fil95" points="82872.98,455.86 83176.64,496.71 80777.66,18328.22 80473.99,18287.35 "/>
    <polygon id="_93" class="fil96" points="83075.4,483.1 83379.06,523.94 80980.08,18355.45 80676.42,18314.58 "/>
    <polygon id="_94" class="fil97" points="83277.85,510.33 83581.49,551.19 81182.51,18382.68 80878.87,18341.83 "/>
    <polygon id="_95" class="fil98" points="83480.28,537.58 83783.94,578.42 81384.96,18409.91 81081.3,18369.07 "/>
    <polygon id="_96" class="fil99" points="83682.73,564.81 83986.37,605.66 81587.39,18437.14 81283.75,18396.3 "/>
    <polygon id="_97" class="fil100" points="83885.15,592.04 84188.82,632.89 81789.84,18464.39 81486.17,18423.53 "/>
    <polygon id="_98" class="fil101" points="84087.6,619.27 84391.24,660.12 81992.26,18491.63 81688.62,18450.76 "/>
    <polygon id="_99" class="fil102" points="84290.03,646.5 84593.69,687.37 82194.71,18518.86 81891.05,18478.01 "/>
    <polygon id="_100" class="fil103" points="84492.46,673.75 84796.12,714.6 82397.14,18546.09 82093.48,18505.24 "/>
    <polygon id="_101" class="fil104" points="84694.9,700.98 84998.55,741.83 82599.57,18573.32 82295.92,18532.47 "/>
    <polygon id="_102" class="fil105" points="84897.33,728.21 85200.99,769.06 82802.01,18600.57 82498.35,18559.7 "/>
    <polygon id="_103" class="fil106" points="85099.78,755.45 85403.42,796.29 83004.44,18627.8 82700.8,18586.93 "/>
    <polygon id="_104" class="fil107" points="85302.21,782.68 85605.87,823.54 83206.89,18655.03 82903.23,18614.18 "/>
    <polygon id="_105" class="fil107" points="85504.66,809.93 85808.3,850.77 83409.32,18682.26 83105.68,18641.42 "/>
    <polygon id="_106" class="fil108" points="85707.08,837.16 86010.75,878 83611.76,18709.49 83308.1,18668.65 "/>
    <polygon id="_107" class="fil109" points="85909.51,864.39 86213.17,905.24 83814.19,18736.74 83510.53,18695.88 "/>
    <polygon id="_108" class="fil110" points="86111.96,891.62 86415.6,932.47 84016.64,18763.97 83712.98,18723.11 "/>
    <polygon id="_109" class="fil111" points="86314.39,918.85 86618.05,959.72 84219.07,18791.21 83915.41,18750.36 "/>
    <polygon id="_110" class="fil112" points="86516.83,946.1 86820.48,986.95 84421.5,18818.44 84117.85,18777.59 "/>
    <polygon id="_111" class="fil113" points="86719.26,973.33 87022.92,1014.18 84623.94,18845.67 84320.28,18804.82 "/>
    <polygon id="_112" class="fil114" points="86921.71,1000.56 87225.35,1041.41 84826.37,18872.92 84522.73,18832.05 "/>
    <polygon id="_113" class="fil114" points="87124.14,1027.8 87427.8,1068.64 85028.82,18900.15 84725.16,18859.3 "/>
    <polygon id="_114" class="fil115" points="87326.57,1055.03 87630.23,1095.89 85231.25,18927.38 84927.59,18886.53 "/>
    <polygon id="_115" class="fil116" points="87529.01,1082.28 87832.67,1123.12 85433.69,18954.61 85130.03,18913.77 "/>
    <polygon id="_116" class="fil117" points="87731.44,1109.51 88035.1,1150.35 85636.12,18981.84 85332.46,18941 "/>
    <polygon id="_117" class="fil118" points="87933.89,1136.74 88237.53,1177.59 85838.55,19009.09 85534.91,18968.23 "/>
    <polygon id="_118" class="fil119" points="88136.32,1163.97 88439.98,1204.82 86041,19036.32 85737.34,18995.48 "/>
    <polygon id="_119" class="fil120" points="88338.76,1191.2 88642.41,1232.07 86243.43,19063.56 85939.78,19022.71 "/>
    <polygon id="_120" class="fil121" points="88541.19,1218.45 88844.85,1259.3 86445.87,19090.79 86142.21,19049.94 "/>
    <polygon id="_121" class="fil122" points="88743.62,1245.68 89047.28,1286.53 86648.3,19118.02 86344.66,19077.17 "/>
    <polygon id="_122" class="fil123" points="88946.07,1272.91 89249.73,1313.76 86850.75,19145.27 86547.09,19104.4 "/>
    <polygon id="_123" class="fil123" points="89148.5,1300.15 89452.16,1340.99 87053.18,19172.5 86749.51,19131.65 "/>
    <polygon id="_124" class="fil124" points="89350.94,1327.38 89654.58,1368.24 87255.6,19199.73 86951.96,19158.88 "/>
    <polygon id="_125" class="fil125" points="89553.37,1354.63 89857.03,1395.47 87458.05,19226.96 87154.39,19186.12 "/>
    <polygon id="_126" class="fil126" points="89755.82,1381.86 90059.46,1422.7 87660.48,19254.19 87356.84,19213.35 "/>
    <polygon id="_127" class="fil126" points="89958.25,1409.09 90261.91,1449.94 87862.93,19281.44 87559.27,19240.58 "/>
    <polygon id="_128" class="fil127" points="90160.69,1436.32 90464.34,1477.17 88065.35,19308.67 87761.71,19267.83 "/>
    <polygon id="_129" class="fil128" points="90363.12,1463.55 90666.78,1504.42 88267.8,19335.91 87964.14,19295.06 "/>
    <polygon id="_130" class="fil129" points="90565.55,1490.8 90869.21,1531.65 88470.23,19363.14 88166.57,19322.29 "/>
    <polygon id="_131" class="fil130" points="90768,1518.03 91071.64,1558.88 88672.66,19390.37 88369.02,19349.52 "/>
    <polygon id="_132" class="fil131" points="90970.42,1545.26 91274.09,1586.11 88875.11,19417.62 88571.44,19376.75 "/>
    <polygon id="_133" class="fil131" points="91172.87,1572.49 91476.51,1613.34 89077.53,19444.85 88773.89,19404 "/>
    <polygon id="_134" class="fil132" points="91375.3,1599.73 91202.67,1576.52 88803.69,19408 88976.32,19431.23 "/>
   </g>
  </g>
  <g>
   <g style="clip-path:url(#id1)">
    <polygon class="fil133" points="86851.73,10490.8 86932.99,10467.83 90556.84,23279.48 90475.6,23302.48 "/>
    <polygon id="_1_0" class="fil134" points="86867.5,10486.35 87063.95,10430.77 90687.81,23242.44 90491.37,23298 "/>
    <polygon id="_2_1" class="fil135" points="86998.48,10449.29 87194.92,10393.72 90818.79,23205.4 90622.33,23260.96 "/>
    <polygon id="_3_2" class="fil136" points="87129.43,10412.25 87325.9,10356.68 90949.77,23168.34 90753.3,23223.92 "/>
    <polygon id="_4_3" class="fil137" points="87260.41,10375.2 87456.87,10319.64 91080.72,23131.3 90884.28,23186.88 "/>
    <polygon id="_5_4" class="fil138" points="87391.39,10338.16 87587.83,10282.58 91211.7,23094.26 91015.25,23149.82 "/>
    <polygon id="_6_5" class="fil139" points="87522.34,10301.1 87718.81,10245.54 91342.67,23057.22 91146.21,23112.78 "/>
    <polygon id="_7_6" class="fil140" points="87653.32,10264.06 87849.78,10208.5 91473.65,23020.16 91277.19,23075.74 "/>
    <polygon id="_8_7" class="fil141" points="87784.29,10227.02 87980.76,10171.44 91604.61,22983.12 91408.16,23038.68 "/>
    <polygon id="_9_8" class="fil142" points="87915.27,10189.98 88111.71,10134.4 91735.58,22946.08 91539.12,23001.64 "/>
    <polygon id="_10_9" class="fil143" points="88046.23,10152.92 88242.69,10097.36 91866.56,22909.04 91670.09,22964.6 "/>
    <polygon id="_11_10" class="fil144" points="88177.2,10115.88 88373.67,10060.32 91997.51,22871.98 91801.07,22927.56 "/>
    <polygon id="_12_11" class="fil145" points="88308.18,10078.84 88504.62,10023.26 92128.49,22834.94 91932.05,22890.5 "/>
    <polygon id="_13_12" class="fil146" points="88439.15,10041.78 88635.6,9986.22 92259.47,22797.9 92063,22853.46 "/>
    <polygon id="_14_13" class="fil147" points="88570.11,10004.74 88766.57,9949.18 92390.44,22760.84 92193.98,22816.42 "/>
    <polygon id="_15_14" class="fil148" points="88701.09,9967.7 88897.55,9912.14 92521.4,22723.8 92324.95,22779.38 "/>
    <polygon id="_16_15" class="fil149" points="88832.06,9930.66 89028.51,9875.08 92652.37,22686.76 92455.91,22742.32 "/>
    <polygon id="_17_16" class="fil150" points="88963.02,9893.6 89159.48,9838.04 92783.35,22649.72 92586.89,22705.28 "/>
    <polygon id="_18_17" class="fil151" points="89093.99,9856.56 89290.46,9801 92914.31,22612.66 92717.86,22668.24 "/>
    <polygon id="_19_18" class="fil152" points="89224.97,9819.52 89421.41,9763.94 93045.28,22575.61 92848.84,22631.18 "/>
    <polygon id="_20_19" class="fil153" points="89355.95,9782.48 89552.39,9726.9 93176.26,22538.57 92979.79,22594.14 "/>
    <polygon id="_21_20" class="fil154" points="89486.9,9745.42 89683.37,9689.86 93307.23,22501.53 93110.77,22557.09 "/>
    <polygon id="_22_21" class="fil155" points="89617.88,9708.38 89814.34,9652.82 93438.19,22464.47 93241.74,22520.05 "/>
    <polygon id="_23_22" class="fil156" points="89748.85,9671.34 89945.3,9615.76 93569.16,22427.43 93372.7,22482.99 "/>
    <polygon id="_24_23" class="fil157" points="89879.81,9634.3 90076.27,9578.72 93700.14,22390.39 93503.68,22445.95 "/>
    <polygon id="_25_24" class="fil158" points="90010.79,9597.24 90207.25,9541.68 93831.12,22353.33 93634.65,22408.91 "/>
    <polygon id="_26_25" class="fil159" points="90141.76,9560.2 90338.21,9504.64 93962.07,22316.29 93765.63,22371.87 "/>
    <polygon id="_27_26" class="fil160" points="90272.74,9523.16 90469.18,9467.57 94093.05,22279.25 93896.58,22334.81 "/>
    <polygon id="_28_27" class="fil161" points="90403.69,9486.1 90600.16,9430.53 94224.02,22242.21 94027.56,22297.77 "/>
    <polygon id="_29_28" class="fil162" points="90534.67,9449.05 90731.13,9393.49 94354.98,22205.15 94158.54,22260.73 "/>
    <polygon id="_30_29" class="fil163" points="90665.64,9412.01 90862.09,9356.43 94485.96,22168.11 94289.51,22223.69 "/>
    <polygon id="_31_30" class="fil164" points="90796.6,9374.97 90993.06,9319.39 94616.93,22131.07 94420.47,22186.63 "/>
    <polygon id="_32_31" class="fil165" points="90927.58,9337.91 91124.04,9282.35 94747.91,22094.03 94551.44,22149.59 "/>
    <polygon id="_33_32" class="fil166" points="91058.55,9300.87 91255.02,9245.31 94878.86,22056.97 94682.42,22112.55 "/>
    <polygon id="_34_33" class="fil167" points="91189.53,9263.83 91385.97,9208.25 95009.84,22019.93 94813.38,22075.49 "/>
    <polygon id="_35_34" class="fil168" points="91320.48,9226.79 91516.95,9171.21 95140.82,21982.89 94944.35,22038.45 "/>
    <polygon id="_36_35" class="fil169" points="91451.46,9189.73 91647.92,9134.17 95271.77,21945.83 95075.33,22001.41 "/>
    <polygon id="_37_36" class="fil170" points="91582.44,9152.69 91778.88,9097.13 95402.75,21908.79 95206.3,21964.37 "/>
    <polygon id="_38_37" class="fil171" points="91713.41,9115.65 91909.86,9060.07 95533.72,21871.75 95337.26,21927.31 "/>
    <polygon id="_39_38" class="fil172" points="91844.37,9078.59 92040.83,9023.03 95664.7,21834.71 95468.24,21890.27 "/>
    <polygon id="_40_39" class="fil173" points="91975.34,9041.55 92171.81,8985.99 95795.66,21797.65 95599.21,21853.23 "/>
    <polygon id="_41_40" class="fil174" points="92106.32,9004.51 92302.76,8948.95 95926.63,21760.61 95730.17,21816.19 "/>
    <polygon id="_42_41" class="fil175" points="92237.28,8967.47 92433.74,8911.89 96057.61,21723.57 95861.14,21779.13 "/>
    <polygon id="_43_42" class="fil176" points="92368.25,8930.41 92564.72,8874.85 96188.56,21686.53 95992.12,21742.09 "/>
    <polygon id="_44_43" class="fil177" points="92499.23,8893.37 92695.67,8837.81 96319.54,21649.47 96123.1,21705.05 "/>
    <polygon id="_45_44" class="fil178" points="92630.2,8856.33 92826.65,8800.75 96450.52,21612.42 96254.05,21667.99 "/>
    <polygon id="_46_45" class="fil179" points="92761.16,8819.29 92957.62,8763.71 96581.49,21575.38 96385.03,21630.94 "/>
    <polygon id="_47_46" class="fil180" points="92892.14,8782.23 93088.6,8726.67 96712.45,21538.34 96516,21593.9 "/>
    <polygon id="_48_47" class="fil181" points="93023.11,8745.19 93219.56,8689.63 96843.42,21501.28 96646.96,21556.86 "/>
    <polygon id="_49_48" class="fil182" points="93154.07,8708.15 93350.53,8652.57 96974.4,21464.24 96777.94,21519.8 "/>
    <polygon id="_50_49" class="fil183" points="93285.04,8671.09 93481.51,8615.53 97105.37,21427.2 96908.91,21482.76 "/>
    <polygon id="_51_50" class="fil184" points="93416.02,8634.05 93612.46,8578.49 97236.33,21390.14 97039.89,21445.72 "/>
    <polygon id="_52_51" class="fil185" points="93547,8597.01 93743.44,8541.44 97367.31,21353.1 97170.84,21408.68 "/>
    <polygon id="_53_52" class="fil186" points="93677.95,8559.97 93874.42,8504.38 97498.28,21316.06 97301.82,21371.62 "/>
    <polygon id="_54_53" class="fil187" points="93808.93,8522.9 94005.39,8467.34 97629.24,21279.02 97432.79,21334.58 "/>
    <polygon id="_55_54" class="fil188" points="93939.9,8485.86 94136.35,8430.3 97760.21,21241.96 97563.77,21297.54 "/>
    <polygon id="_56_55" class="fil189" points="94070.88,8448.82 94267.32,8393.24 97891.19,21204.92 97694.73,21260.48 "/>
    <polygon id="_57_56" class="fil190" points="94201.84,8411.78 94398.3,8356.2 98022.17,21167.88 97825.7,21223.44 "/>
    <polygon id="_58_57" class="fil191" points="94332.81,8374.72 94529.27,8319.16 98153.12,21130.84 97956.68,21186.4 "/>
    <polygon id="_59_58" class="fil192" points="94463.79,8337.68 94660.23,8282.12 98284.1,21093.78 98087.63,21149.36 "/>
    <polygon id="_60_59" class="fil193" points="94594.74,8300.64 94791.21,8245.06 98415.07,21056.74 98218.61,21112.3 "/>
    <polygon id="_61_60" class="fil194" points="94725.72,8263.6 94922.18,8208.02 98546.03,21019.7 98349.59,21075.26 "/>
    <polygon id="_62_61" class="fil195" points="94856.69,8226.54 95053.14,8170.98 98677.01,20982.64 98480.56,21038.22 "/>
    <polygon id="_63_62" class="fil196" points="94987.67,8189.5 95184.11,8133.94 98807.98,20945.6 98611.52,21001.18 "/>
    <polygon id="_64_63" class="fil197" points="95118.63,8152.46 95315.09,8096.88 98938.96,20908.56 98742.49,20964.12 "/>
    <polygon id="_65_64" class="fil198" points="95249.6,8115.4 95446.07,8059.84 99069.91,20871.52 98873.47,20927.08 "/>
    <polygon id="_66_65" class="fil199" points="95380.58,8078.36 95577.02,8022.8 99200.89,20834.46 99004.43,20890.04 "/>
    <polygon id="_67_66" class="fil200" points="95511.53,8041.32 95708,7985.74 99331.87,20797.42 99135.4,20853 "/>
    <polygon id="_68_67" class="fil201" points="95642.51,8004.28 95838.97,7948.7 99462.82,20760.38 99266.38,20815.94 "/>
    <polygon id="_69_68" class="fil202" points="95773.49,7967.22 95969.93,7911.66 99593.8,20723.33 99397.35,20778.9 "/>
    <polygon id="_70_69" class="fil203" points="95904.46,7930.18 96100.91,7874.62 99724.77,20686.27 99528.31,20741.86 "/>
    <polygon id="_71_70" class="fil204" points="96035.42,7893.14 96231.88,7837.56 99855.75,20649.23 99659.29,20704.8 "/>
    <polygon id="_72_71" class="fil205" points="96166.39,7856.1 96362.86,7800.52 99986.71,20612.19 99790.26,20667.75 "/>
    <polygon id="_73_72" class="fil206" points="96297.37,7819.04 96493.81,7763.48 100117.68,20575.13 99921.24,20630.71 "/>
    <polygon id="_74_73" class="fil207" points="96428.33,7782 96624.79,7726.44 100248.66,20538.09 100052.19,20593.67 "/>
    <polygon id="_75_74" class="fil208" points="96559.3,7744.96 96755.77,7689.38 100379.63,20501.05 100183.17,20556.61 "/>
    <polygon id="_76_75" class="fil209" points="96690.28,7707.9 96886.74,7652.34 100510.59,20464.01 100314.15,20519.57 "/>
    <polygon id="_77_76" class="fil210" points="96821.25,7670.86 97017.7,7615.29 100641.57,20426.95 100445.1,20482.53 "/>
    <polygon id="_78_77" class="fil211" points="96952.21,7633.82 97148.67,7578.25 100772.54,20389.91 100576.08,20445.49 "/>
    <polygon id="_79_78" class="fil212" points="97083.19,7596.77 97279.65,7541.19 100903.5,20352.87 100707.05,20408.43 "/>
    <polygon id="_80_79" class="fil213" points="97214.16,7559.71 97410.61,7504.15 101034.47,20315.83 100838.03,20371.39 "/>
    <polygon id="_81_80" class="fil214" points="97345.14,7522.67 97541.58,7467.11 101165.45,20278.77 100968.99,20334.35 "/>
    <polygon id="_82_81" class="fil215" points="97476.09,7485.63 97672.56,7430.05 101296.42,20241.73 101099.96,20297.29 "/>
    <polygon id="_83_82" class="fil216" points="97607.07,7448.59 97803.53,7393.01 101427.38,20204.69 101230.94,20260.25 "/>
    <polygon id="_84_83" class="fil217" points="97738.05,7411.53 97934.49,7355.97 101558.36,20167.65 101361.89,20223.21 "/>
    <polygon id="_85_84" class="fil218" points="97869,7374.49 98065.47,7318.93 101689.33,20130.59 101492.87,20186.17 "/>
    <polygon id="_86_85" class="fil219" points="97999.98,7337.45 98196.44,7281.87 101820.29,20093.55 101623.84,20149.11 "/>
    <polygon id="_87_86" class="fil220" points="98130.95,7300.39 98327.4,7244.83 101951.26,20056.51 101754.82,20112.07 "/>
    <polygon id="_88_87" class="fil221" points="98261.93,7263.35 98458.37,7207.79 102082.24,20019.45 101885.78,20075.03 "/>
    <polygon id="_89_88" class="fil222" points="98392.89,7226.31 98589.35,7170.75 102213.22,19982.41 102016.75,20037.99 "/>
    <polygon id="_90_89" class="fil223" points="98523.86,7189.27 98720.32,7133.69 102344.17,19945.37 102147.73,20000.93 "/>
    <polygon id="_91_90" class="fil224" points="98654.84,7152.21 98851.28,7096.65 102475.15,19908.33 102278.68,19963.89 "/>
    <polygon id="_92_91" class="fil225" points="98785.79,7115.17 98982.26,7059.61 102606.12,19871.27 102409.66,19926.85 "/>
    <polygon id="_93_92" class="fil226" points="98916.77,7078.13 99113.23,7022.55 102737.1,19834.23 102540.64,19889.79 "/>
    <polygon id="_94_93" class="fil227" points="99047.74,7041.09 99244.19,6985.51 102868.06,19797.19 102671.61,19852.75 "/>
    <polygon id="_95_94" class="fil228" points="99178.72,7004.03 99375.16,6948.47 102999.03,19760.14 102802.57,19815.71 "/>
    <polygon id="_96_95" class="fil229" points="99309.68,6966.99 99506.14,6911.43 103130.01,19723.08 102933.54,19778.66 "/>
    <polygon id="_97_96" class="fil230" points="99440.65,6929.95 99637.12,6874.37 103260.96,19686.04 103064.52,19741.6 "/>
    <polygon id="_98_97" class="fil231" points="99571.63,6892.91 99768.07,6837.33 103391.94,19649 103195.5,19704.56 "/>
    <polygon id="_99_98" class="fil232" points="99702.6,6855.85 99899.05,6800.29 103522.92,19611.94 103326.45,19667.52 "/>
    <polygon id="_100_99" class="fil233" points="99833.56,6818.81 100030.02,6763.25 103653.89,19574.9 103457.43,19630.48 "/>
    <polygon id="_101_100" class="fil234" points="99964.54,6781.77 100161,6726.19 103784.85,19537.86 103588.4,19593.42 "/>
    <polygon id="_102_101" class="fil235" points="100095.51,6744.71 100291.96,6689.15 103915.82,19500.82 103719.36,19556.38 "/>
    <polygon id="_103_102" class="fil236" points="100226.47,6707.67 100422.93,6652.1 104046.8,19463.76 103850.34,19519.34 "/>
    <polygon id="_104_103" class="fil237" points="100357.44,6670.62 100553.91,6615.04 104177.76,19426.72 103981.31,19482.3 "/>
    <polygon id="_105_104" class="fil238" points="100488.42,6633.58 100684.86,6578 104308.73,19389.68 104112.29,19445.24 "/>
    <polygon id="_106_105" class="fil239" points="100619.4,6596.52 100815.84,6540.96 104439.71,19352.64 104243.24,19408.2 "/>
    <polygon id="_107_106" class="fil240" points="100750.35,6559.48 100946.82,6503.92 104570.68,19315.58 104374.22,19371.16 "/>
    <polygon id="_108_107" class="fil241" points="100881.33,6522.44 101077.79,6466.86 104701.64,19278.54 104505.2,19334.1 "/>
    <polygon id="_109_108" class="fil242" points="101012.3,6485.4 101208.75,6429.82 104832.62,19241.5 104636.15,19297.06 "/>
    <polygon id="_110_109" class="fil243" points="101143.26,6448.34 101339.72,6392.78 104963.59,19204.44 104767.13,19260.02 "/>
    <polygon id="_111_110" class="fil244" points="101274.24,6411.3 101470.7,6355.74 105094.55,19167.4 104898.1,19222.98 "/>
    <polygon id="_112_111" class="fil245" points="101405.21,6374.26 101601.66,6318.68 105225.52,19130.36 105029.08,19185.92 "/>
    <polygon id="_113_112" class="fil246" points="101536.19,6337.2 101732.63,6281.64 105356.5,19093.32 105160.04,19148.88 "/>
    <polygon id="_114_113" class="fil247" points="101667.14,6300.16 101863.61,6244.6 105487.47,19056.26 105291.01,19111.84 "/>
    <polygon id="_115_114" class="fil248" points="101798.12,6263.12 101994.58,6207.56 105618.43,19019.22 105421.99,19074.8 "/>
    <polygon id="_116_115" class="fil249" points="101929.1,6226.08 102125.54,6170.5 105749.41,18982.18 105552.96,19037.74 "/>
    <polygon id="_117_116" class="fil250" points="102060.05,6189.02 102256.52,6133.46 105880.38,18945.14 105683.92,19000.7 "/>
    <polygon id="_118_117" class="fil251" points="102191.03,6151.98 102387.49,6096.42 106011.36,18908.08 105814.89,18963.66 "/>
    <polygon id="_119_118" class="fil252" points="102322,6114.94 102518.47,6059.36 106142.31,18871.04 105945.87,18926.6 "/>
    <polygon id="_120_119" class="fil253" points="102452.98,6077.9 102649.42,6022.32 106273.29,18833.99 106076.83,18889.56 "/>
    <polygon id="_121_120" class="fil254" points="102583.94,6040.84 102780.4,5985.28 106404.27,18796.95 106207.8,18852.52 "/>
    <polygon id="_122_121" class="fil255" points="102714.91,6003.8 102911.37,5948.24 106535.22,18759.89 106338.78,18815.47 "/>
    <polygon id="_123_122" class="fil256" points="102845.89,5966.76 103042.33,5911.18 106666.2,18722.85 106469.75,18778.41 "/>
    <polygon id="_124_123" class="fil257" points="102976.86,5929.7 103173.31,5874.14 106797.17,18685.81 106600.71,18741.37 "/>
    <polygon id="_125_124" class="fil258" points="103107.82,5892.66 103304.28,5837.1 106928.15,18648.75 106731.69,18704.33 "/>
    <polygon id="_126_125" class="fil259" points="103238.79,5855.62 103435.26,5800.06 107059.11,18611.71 106862.66,18667.29 "/>
    <polygon id="_127_126" class="fil260" points="103369.77,5818.58 103566.21,5763 107190.08,18574.67 106993.62,18630.23 "/>
    <polygon id="_128_127" class="fil261" points="103500.73,5781.52 103697.19,5725.95 107321.06,18537.63 107124.59,18593.19 "/>
    <polygon id="_129_128" class="fil262" points="103631.7,5744.48 103828.17,5688.91 107452.01,18500.57 107255.57,18556.15 "/>
    <polygon id="_130_129" class="fil263" points="103762.68,5707.43 103959.12,5651.85 107582.99,18463.53 107386.55,18519.09 "/>
    <polygon id="_131_130" class="fil264" points="103893.65,5670.39 104090.1,5614.81 107713.97,18426.49 107517.5,18482.05 "/>
    <polygon id="_132_131" class="fil265" points="104024.61,5633.33 104221.07,5577.77 107844.94,18389.45 107648.48,18445.01 "/>
    <polygon id="_133_132" class="fil266" points="104155.59,5596.29 104352.05,5540.73 107975.9,18352.39 107779.45,18407.97 "/>
    <polygon id="_134_133" class="fil267" points="104286.56,5559.25 104483.01,5503.67 108106.87,18315.35 107910.41,18370.91 "/>
    <polygon id="_135" class="fil268" points="104417.52,5522.21 104613.98,5466.63 108237.85,18278.31 108041.39,18333.87 "/>
    <polygon id="_136" class="fil269" points="104548.49,5485.15 104744.96,5429.59 108368.83,18241.25 108172.36,18296.83 "/>
    <polygon id="_137" class="fil270" points="104679.47,5448.11 104875.91,5392.55 108499.78,18204.21 108303.34,18259.79 "/>
    <polygon id="_138" class="fil271" points="104810.45,5411.07 105006.89,5355.49 108630.76,18167.17 108434.29,18222.73 "/>
    <polygon id="_139" class="fil272" points="104941.4,5374.01 105137.87,5318.45 108761.73,18130.13 108565.27,18185.69 "/>
    <polygon id="_140" class="fil272" points="105072.38,5336.97 105268.84,5281.41 108892.69,18093.07 108696.25,18148.65 "/>
    <polygon id="_141" class="fil273" points="105203.35,5299.93 105399.8,5244.35 109023.67,18056.03 108827.22,18111.61 "/>
    <polygon id="_142" class="fil274" points="105334.33,5262.89 105530.77,5207.31 109154.64,18018.99 108958.18,18074.55 "/>
    <polygon id="_143" class="fil275" points="105465.29,5225.83 105661.75,5170.27 109285.62,17981.95 109089.15,18037.51 "/>
    <polygon id="_144" class="fil276" points="105596.26,5188.79 105792.73,5133.23 109416.57,17944.89 109220.13,18000.47 "/>
    <polygon id="_145" class="fil277" points="105727.24,5151.75 105923.68,5096.17 109547.55,17907.85 109351.09,17963.41 "/>
    <polygon id="_146" class="fil278" points="105858.19,5114.71 106054.66,5059.13 109678.52,17870.8 109482.06,17926.37 "/>
    <polygon id="_147" class="fil279" points="105989.17,5077.65 106185.63,5022.09 109809.48,17833.74 109613.04,17889.32 "/>
    <polygon id="_148" class="fil280" points="106120.15,5040.61 106316.59,4985.05 109940.46,17796.7 109744.01,17852.28 "/>
    <polygon id="_149" class="fil281" points="106251.12,5003.57 106447.57,4947.99 110071.43,17759.66 109874.97,17815.22 "/>
    <polygon id="_150" class="fil281" points="106382.08,4966.51 106578.54,4910.95 110202.41,17722.62 110005.94,17778.18 "/>
    <polygon id="_151" class="fil282" points="106513.05,4929.47 106709.52,4873.91 110333.36,17685.56 110136.92,17741.14 "/>
    <polygon id="_152" class="fil283" points="106644.03,4892.43 106840.47,4836.87 110464.34,17648.52 110267.88,17704.1 "/>
    <polygon id="_153" class="fil284" points="106774.99,4855.39 106971.45,4799.81 110595.32,17611.48 110398.85,17667.04 "/>
    <polygon id="_154" class="fil285" points="106905.96,4818.33 107102.42,4762.76 110726.27,17574.44 110529.83,17630 "/>
    <polygon id="_155" class="fil286" points="107036.94,4781.28 107233.38,4725.72 110857.25,17537.38 110660.8,17592.96 "/>
    <polygon id="_156" class="fil287" points="107167.91,4744.24 107364.36,4688.66 110988.22,17500.34 110791.76,17555.9 "/>
    <polygon id="_157" class="fil288" points="107298.87,4707.2 107495.33,4651.62 111119.2,17463.3 110922.74,17518.86 "/>
    <polygon id="_158" class="fil289" points="107429.84,4670.14 107365.24,4688.43 110989.11,17500.09 111053.71,17481.82 "/>
   </g>
  </g>
  <path class="fil290" d="M58726.47 20463.78c-911.53,371.17 -421.2,1661.15 497.99,1329.91 810.59,-292.11 407.15,-1698.51 -497.99,-1329.91z"/>
  <path class="fil291" d="M65101.42 16118.89c96.53,-576.25 329.64,-317.81 -481.21,-1083.3 -163.76,-154.62 -277.86,-270.62 -443.17,-443.82 -227.29,-238.13 -350.22,-45.83 -622.59,39.63 140.04,-381.14 355.38,-295.81 -260.99,-844.28 -84.15,-74.87 -152.91,-131.11 -244.59,-231.72 -82.67,-90.76 -154.42,-151.61 -245.43,-230.74l-239.08 -236.19c-338.66,-315.57 -240.17,-154.36 -666.53,-71.98 126.03,-187.95 394.63,-198.7 -28.58,-575.15l-521.29 -496.01c-166.76,-148.1 -622.94,60.47 -767.02,137.71 -893.54,479.03 -1633.9,1534.77 -2214.09,2351.86 -61.03,85.93 -166.33,225.75 -205.02,310.67 119.24,106.51 208.47,184.5 328.83,317.06l1009.49 959.72c214.34,189.81 455.77,432.66 670.81,627.75l330.09 319.04c296.4,259.97 690.13,666.59 1011.67,957.85l499.75 473.84c63.33,58.68 106.61,119.36 169.64,176.55 231.35,209.9 451.23,427.4 681.86,638.3 115.87,105.96 214.93,215.1 330.32,318.79 60.96,54.8 112.83,97.56 169.13,156.11 65.39,67.98 110.98,134.61 189.64,164.84 117.56,-162.17 629.18,-707.22 795.04,-888.78 48.91,-53.52 85.48,-94.37 137.29,-144.2 47.62,-45.81 113.73,-96.66 148.08,-133.13 387.79,-411.53 1088.42,-1014.53 1580.01,-1233.44 119.17,-53.07 339.17,-96.53 421.9,-141.02 286.69,-154.11 -119.54,-478.25 -298.78,-641.36 -196.03,-178.38 -385.49,-368.11 -582.43,-543.58 -84.4,-75.2 -183.46,-230.29 -312.45,-249.3 -124.68,-18.38 -176.06,59.8 -257.5,155.87l-68.59 71.39c-3.14,2.71 -9.14,7.83 -14.22,11.03z"/>
  <path class="fil291" d="M63290.54 20143.73c-62.35,-128.99 -228.11,-250.4 -324.95,-337.43l-662.96 -635.46c-106.81,-120.22 -229.01,-208.55 -347.84,-323.08l-1670.96 -1596.39c-329.66,-298.4 -665.39,-649.5 -1011.24,-958.38l-1352.25 -1275.19c-51.03,31.7 -402.76,381.18 -440.82,434.77 -109.69,154.5 63.41,453.41 126.58,646.33 148.67,454.08 287.73,923.42 328.97,1438.85 45.34,566.73 -44.73,1047.94 -270.82,1496.82 -164.15,325.97 -318.28,523.39 -544.7,774.67 -585.27,649.48 -1457.82,1287.31 -2228.75,1753.34 -358.91,216.95 -662.08,489.71 -761.04,1015.12 -197.58,1049.3 733.08,1906.47 1724.74,1703.04 474.33,-97.29 772.59,-356.53 1002.64,-774.04 264.35,-479.74 1014.43,-1689.62 1430.57,-2117.84 536.36,-551.98 1149.24,-1171.43 2359.15,-1170.19 519.57,0.53 1057.36,119.09 1524.88,250.45 178,50.03 539.36,213.75 675.18,113.16 95.9,-71.02 259.48,-299.17 443.6,-438.56z"/>
  <path class="fil292" d="M55695.18 23433.63c802.47,-191.34 496.75,-1363.81 -266.15,-1179.84 -784.44,189.15 -493.22,1360.9 266.15,1179.84z"/>
 </g>
</svg>
