<?xml version="1.0" encoding="UTF-8"?>
<!DOCTYPE svg PUBLIC "-//W3C//DTD SVG 1.1//EN" "http://www.w3.org/Graphics/SVG/1.1/DTD/svg11.dtd">
<!-- Creator: CorelDRAW -->
<svg xmlns="http://www.w3.org/2000/svg" xml:space="preserve" width="495.952mm" height="165.7mm" version="1.1" style="shape-rendering:geometricPrecision; text-rendering:geometricPrecision; image-rendering:optimizeQuality; fill-rule:evenodd; clip-rule:evenodd"
viewBox="0 0 103900.43 34713.55"
 xmlns:xlink="http://www.w3.org/1999/xlink"
 xmlns:xodm="http://www.corel.com/coreldraw/odm/2003">
 <defs>
  <style type="text/css">
   <![CDATA[
    .fil0 {fill:#B30000}
    .fil2 {fill:#CC2525}
    .fil1 {fill:red}
    .fil3 {fill:black;fill-rule:nonzero}
   ]]>
  </style>
 </defs>
 <g id="Слой_x0020_1">
  <metadata id="CorelCorpID_0Corel-Layer"/>
  <g id="_3004437345952">
   <rect class="fil0" x="7953.7" y="8800.43" width="7080.5" height="25913.11"/>
   <polygon class="fil1" points="25816.93,10589.91 25816.93,20425.11 22276.67,23193.49 25816.93,25955.09 25816.93,34713.55 18736.42,34713.55 18736.42,26733.71 7953.71,26645.51 7953.71,19565 18736.42,19653.22 18736.42,15074.32 "/>
   <polygon class="fil2" points="18752.05,15176.76 -0,4379.55 7515.53,0 25849.74,10624.35 "/>
  </g>
  <g id="_3004437345040">
   <path class="fil3" d="M41979.94 34641.42l0 -5076.48 2097.36 0c380.4,0 708.43,74.43 985.28,222.17 276.87,147.74 489.74,353.63 640.98,617.7 150.06,262.9 224.5,568.83 224.5,917.81 0,350.15 -75.61,656.08 -229.15,917.83 -152.39,262.9 -369.93,465.31 -652.6,608.38 -282.67,144.26 -617.7,216.37 -1006.21,216.37l-1293.56 0 0 -966.66 1065.54 0c184.96,0 339.68,-32.58 464.14,-96.56 125.64,-65.15 219.87,-154.71 283.85,-271.05 65.13,-117.49 96.56,-252.42 96.56,-408.31 0,-157.04 -31.42,-293.13 -96.56,-407.14 -63.98,-115.16 -159.36,-204.74 -285,-267.55 -125.64,-61.65 -279.18,-93.06 -462.99,-93.06l-604.9 0 0 4086.55 -1227.23 0zm6258.38 72.13c-397.86,0 -741.01,-79.11 -1029.49,-237.32 -288.5,-157.04 -509.52,-382.71 -664.23,-675.86 -154.71,-294.3 -231.49,-643.28 -231.49,-1048.09 0,-393.18 76.78,-736.36 232.65,-1031.81 154.71,-295.47 374.58,-524.64 656.08,-688.66 282.67,-165.19 616.53,-246.62 999.26,-246.62 271.03,0 518.82,41.88 743.32,125.64 225.67,84.91 418.78,209.39 582.8,374.58 164.01,165.17 290.82,368.76 381.56,610.7 90.73,241.97 136.11,519.97 136.11,831.74l0 302.45 -3308.33 0 0 -703.78 2181.11 0c-2.33,-129.13 -32.58,-244.29 -91.89,-344.33 -59.33,-101.21 -140.76,-180.31 -244.29,-237.3 -103.53,-57 -222.19,-84.93 -355.96,-84.93 -134.94,0 -255.92,30.25 -364.11,90.73 -107.01,59.33 -191.94,141.91 -254.75,244.29 -62.83,103.53 -96.56,221.02 -98.88,351.31l0 716.56c0,154.71 30.25,290.82 90.73,407.16 61.65,116.31 147.74,207.05 260.57,272.2 112.83,63.98 246.62,96.56 401.33,96.56 108.18,0 204.72,-15.13 293.13,-45.38 87.26,-29.08 162.86,-73.28 225.69,-131.44 62.81,-57 109.34,-127.96 140.74,-212.89l1113.24 32.58c-46.53,248.94 -147.74,466.47 -303.6,650.26 -157.04,184.96 -360.61,326.88 -614.2,429.26 -252.44,101.19 -544.42,152.39 -877.1,152.39zm4734.48 -1365.69l931.78 -2513.81 887.55 0 -1430.8 3807.37 -778.24 0 -1392.42 -3807.37 885.25 0 896.88 2513.81zm-1157.45 -2513.81l0 3807.37 -1148.15 0 0 -3807.37 1148.15 0zm2383.53 3807.37l0 -3807.37 1133.02 0 0 3807.37 -1133.02 0zm3646.84 72.13c-400.18,0 -743.34,-82.6 -1029.51,-246.62 -287.32,-165.19 -507.17,-394.36 -661.88,-689.81 -154.71,-294.32 -231.49,-636.3 -231.49,-1027.16 0,-390.86 76.78,-734.03 231.49,-1029.49 154.71,-295.47 374.56,-524.64 661.88,-688.66 286.17,-165.19 629.33,-246.62 1029.51,-246.62 400.16,0 743.32,81.43 1029.49,246.62 287.32,164.01 507.17,393.18 661.88,688.66 154.71,295.45 231.49,638.63 231.49,1029.49 0,390.86 -76.78,732.84 -231.49,1027.16 -154.71,295.45 -374.56,524.62 -661.88,689.81 -286.17,164.01 -629.33,246.62 -1029.49,246.62zm6.98 -914.33c145.41,0 268.7,-45.38 369.91,-133.78 100.03,-89.56 177.99,-214.04 231.49,-372.23 53.51,-158.21 80.26,-342 80.26,-550.24 0,-211.7 -26.75,-396.66 -80.26,-554.87 -53.51,-159.36 -131.46,-282.67 -231.49,-372.23 -101.21,-89.58 -224.5,-133.78 -369.91,-133.78 -150.06,0 -276.87,44.2 -380.4,133.78 -103.51,89.56 -181.47,212.87 -234.97,372.23 -53.51,158.21 -80.26,343.18 -80.26,554.87 0,208.24 26.75,392.03 80.26,550.24 53.51,158.19 131.46,282.67 234.97,372.23 103.53,88.41 230.34,133.78 380.4,133.78zm5223.05 -1534.35l0 923.63 -1953.12 0 0 -923.63 1953.12 0zm-1536.66 -1430.82l0 3807.37 -1148.15 0 0 -3807.37 1148.15 0zm2267.19 0l0 3807.37 -1140 0 0 -3807.37 1140 0zm404.81 927.13l0 -927.13 3568.9 0 0 927.13 -1216.78 0 0 2880.24 -1150.47 0 0 -2880.24 -1201.65 0zm8924.58 -2314.9l326.88 800.32c-103.51,81.43 -217.52,141.93 -340.83,183.79 -122.14,41.88 -272.2,69.8 -449.01,83.76 -176.82,15.13 -400.16,23.28 -670.03,25.6 -303.62,1.15 -550.24,43.03 -737.51,124.46 -188.46,82.6 -331.55,215.22 -428.09,399.01 -96.56,184.96 -160.54,429.24 -191.94,735.19l31.4 0c109.36,-229.17 265.22,-410.63 466.47,-543.25 201.24,-131.46 461.81,-197.76 780.56,-197.76 332.68,0 621.18,70.96 867.8,214.04 246.6,143.09 436.21,346.65 570,609.55 133.76,264.07 201.24,576.97 201.24,938.75 0,382.73 -76.78,716.58 -231.49,1001.58 -153.56,283.83 -373.41,503.69 -658.41,658.41 -286.17,155.87 -628.18,233.82 -1026.01,233.82 -398.99,0 -740.99,-81.43 -1028.31,-243.12 -286.17,-161.71 -507.19,-400.18 -660.73,-715.41 -154.71,-314.1 -232.67,-701.46 -232.67,-1160.95l0 -278.02c0,-941.08 190.79,-1634.39 570,-2078.75 380.4,-444.36 935.28,-668.88 1665.81,-672.36 183.79,-1.17 350.13,-1.17 500.19,-1.17 148.89,1.17 280.35,-5.82 392.01,-22.1 112.86,-15.13 207.07,-47.7 282.67,-95.38zm-1481.98 4352.94c138.41,0 258.23,-37.23 359.43,-111.68 101.21,-74.46 177.99,-181.47 232.67,-319.9 54.66,-139.59 82.58,-305.93 82.58,-501.37 0,-194.27 -27.93,-360.61 -83.76,-497.87 -54.68,-137.26 -133.78,-241.97 -233.82,-312.93 -101.21,-72.11 -221.02,-108.18 -359.45,-108.18 -105.84,0 -201.24,19.78 -287.32,60.5 -86.08,40.71 -159.36,100.03 -218.69,179.14 -59.33,77.93 -104.69,174.49 -136.09,288.48 -31.4,114.01 -46.53,244.29 -46.53,390.86 0,290.82 60.48,518.82 182.62,684.01 122.16,166.34 292,248.94 508.36,248.94zm4327.34 914.33c-397.86,0 -741.01,-79.11 -1029.49,-237.32 -288.5,-157.04 -509.52,-382.71 -664.23,-675.86 -154.71,-294.3 -231.49,-643.28 -231.49,-1048.09 0,-393.18 76.78,-736.36 232.65,-1031.81 154.71,-295.47 374.58,-524.64 656.08,-688.66 282.67,-165.19 616.53,-246.62 999.26,-246.62 271.03,0 518.82,41.88 743.32,125.64 225.67,84.91 418.78,209.39 582.8,374.58 164.01,165.17 290.82,368.76 381.56,610.7 90.73,241.97 136.11,519.97 136.11,831.74l0 302.45 -3308.33 0 0 -703.78 2181.11 0c-2.33,-129.13 -32.58,-244.29 -91.89,-344.33 -59.33,-101.21 -140.76,-180.31 -244.29,-237.3 -103.53,-57 -222.19,-84.93 -355.96,-84.93 -134.94,0 -255.92,30.25 -364.11,90.73 -107.01,59.33 -191.94,141.91 -254.75,244.29 -62.83,103.53 -96.56,221.02 -98.88,351.31l0 716.56c0,154.71 30.25,290.82 90.73,407.16 61.65,116.31 147.74,207.05 260.57,272.2 112.83,63.98 246.62,96.56 401.33,96.56 108.18,0 204.72,-15.13 293.13,-45.38 87.26,-29.08 162.86,-73.28 225.69,-131.44 62.81,-57 109.34,-127.96 140.74,-212.89l1113.24 32.58c-46.53,248.94 -147.74,466.47 -303.6,650.26 -157.04,184.96 -360.61,326.88 -614.2,429.26 -252.44,101.19 -544.42,152.39 -877.1,152.39zm2248.57 -1187.7l1155.12 0c2.33,112.83 52.35,201.24 146.58,267.55 95.38,66.31 218.69,98.88 368.74,98.88 152.39,0 278.02,-36.08 378.08,-109.36 100.03,-73.28 150.06,-175.64 150.06,-305.93 0,-80.28 -20.95,-150.06 -61.65,-209.39 -39.55,-60.48 -96.56,-108.18 -167.51,-143.09 -72.13,-34.9 -155.89,-52.33 -250.1,-52.33l-509.52 0 0 -745.66 509.52 0c140.74,0 251.25,-32.58 332.68,-98.88 80.28,-66.31 120.98,-150.06 120.98,-251.27 0,-113.99 -40.71,-205.89 -122.14,-276.85 -81.43,-70.96 -190.79,-107.01 -325.73,-107.01 -133.76,0 -245.45,30.23 -332.68,91.89 -87.26,61.65 -131.46,140.76 -133.78,238.47l-1155.12 0c2.33,-237.3 72.13,-439.71 211.72,-608.38 139.59,-169.84 328.03,-300.13 565.35,-392.03 237.3,-91.89 501.37,-137.26 792.19,-137.26 325.7,0 606.05,41.88 841.02,126.81 236.14,86.06 416.46,208.22 542.09,367.58 125.64,159.36 188.44,352.48 188.44,580.47 0,198.92 -68.63,366.43 -204.74,503.69 -136.09,137.26 -332.68,234.97 -588.6,291.98l0 39.55c160.54,9.3 307.1,48.85 440.86,120.98 133.78,72.11 241.97,172.16 324.55,302.45 82.6,129.11 124.48,286.15 124.48,468.79 0,237.3 -72.13,438.54 -216.37,606.05 -143.09,168.69 -339.68,296.65 -590.95,386.21 -250.1,88.41 -537.42,133.78 -860.8,133.78 -315.25,0 -597.92,-44.2 -846.87,-132.61 -247.77,-88.41 -446.69,-221.02 -593.25,-397.86 -146.58,-176.82 -224.52,-395.51 -232.67,-657.23zm5254.47 0l1155.12 0c2.33,112.83 52.35,201.24 146.58,267.55 95.38,66.31 218.69,98.88 368.74,98.88 152.39,0 278.02,-36.08 378.08,-109.36 100.03,-73.28 150.06,-175.64 150.06,-305.93 0,-80.28 -20.95,-150.06 -61.65,-209.39 -39.55,-60.48 -96.56,-108.18 -167.51,-143.09 -72.13,-34.9 -155.89,-52.33 -250.1,-52.33l-509.52 0 0 -745.66 509.52 0c140.74,0 251.25,-32.58 332.68,-98.88 80.28,-66.31 120.98,-150.06 120.98,-251.27 0,-113.99 -40.71,-205.89 -122.14,-276.85 -81.43,-70.96 -190.79,-107.01 -325.73,-107.01 -133.76,0 -245.45,30.23 -332.68,91.89 -87.26,61.65 -131.46,140.76 -133.78,238.47l-1155.12 0c2.33,-237.3 72.13,-439.71 211.72,-608.38 139.59,-169.84 328.03,-300.13 565.35,-392.03 237.3,-91.89 501.37,-137.26 792.19,-137.26 325.7,0 606.05,41.88 841.02,126.81 236.14,86.06 416.46,208.22 542.09,367.58 125.64,159.36 188.44,352.48 188.44,580.47 0,198.92 -68.63,366.43 -204.74,503.69 -136.09,137.26 -332.68,234.97 -588.6,291.98l0 39.55c160.54,9.3 307.1,48.85 440.86,120.98 133.78,72.11 241.97,172.16 324.55,302.45 82.6,129.11 124.48,286.15 124.48,468.79 0,237.3 -72.13,438.54 -216.37,606.05 -143.09,168.69 -339.68,296.65 -590.95,386.21 -250.1,88.41 -537.42,133.78 -860.8,133.78 -315.25,0 -597.92,-44.2 -846.87,-132.61 -247.77,-88.41 -446.69,-221.02 -593.25,-397.86 -146.58,-176.82 -224.52,-395.51 -232.67,-657.23zm5006.7 1179.55c-243.12,0 -458.34,-40.71 -645.61,-122.14 -187.29,-81.43 -336.2,-205.91 -444.38,-372.25 -108.18,-165.19 -161.69,-374.56 -161.69,-625.83 0,-211.72 37.23,-389.71 111.68,-535.1 74.43,-145.41 176.82,-262.92 307.1,-354.8 130.29,-90.73 280.35,-159.36 451.34,-205.89 169.84,-47.7 351.31,-79.11 545.57,-96.56 216.37,-19.78 389.71,-40.71 522.32,-62.81 132.61,-22.1 228,-54.68 288.48,-96.56 60.5,-41.88 90.73,-102.38 90.73,-179.14l0 -12.8c0,-126.81 -44.2,-225.67 -131.44,-295.47 -87.26,-68.63 -205.89,-103.53 -354.8,-103.53 -159.36,0 -288.48,34.9 -386.21,103.53 -97.71,69.8 -159.36,165.19 -186.12,288.5l-1117.9 -40.73c33.73,-230.32 118.66,-437.39 257.07,-620.01 137.26,-182.64 328.05,-326.88 570,-431.58 241.97,-104.69 532.79,-157.04 873.62,-157.04 243.12,0 466.47,27.93 671.21,84.93 205.89,56.98 383.88,139.59 536.27,247.77 151.21,108.18 268.7,240.8 352.46,397.83 83.76,157.04 125.64,336.18 125.64,538.6l0 2587.1 -1140 0 0 -530.45 -30.25 0c-67.46,129.11 -153.54,238.47 -259.4,326.88 -104.71,89.56 -228,157.04 -368.76,201.24 -140.76,44.2 -300.13,66.31 -476.94,66.31zm374.58 -792.19c130.27,0 247.77,-26.75 352.46,-80.26 104.69,-52.35 188.44,-125.64 251.27,-218.69 62.81,-93.06 94.23,-202.42 94.23,-325.73l0 -361.76c-33.75,17.45 -75.63,33.73 -124.48,48.85 -48.85,15.13 -102.36,29.08 -160.54,41.88 -56.98,13.95 -116.31,25.58 -177.97,34.9 -61.65,10.45 -119.81,19.78 -175.66,27.9 -113.99,17.45 -211.7,45.38 -291.98,83.76 -80.26,38.4 -140.76,87.26 -182.64,147.74 -43.03,60.48 -63.96,131.46 -63.96,214.04 0,125.64 45.36,222.19 134.94,287.32 90.73,66.31 204.72,100.03 344.33,100.03zm5917.51 -4466.93l326.88 800.32c-103.51,81.43 -217.52,141.93 -340.83,183.79 -122.14,41.88 -272.2,69.8 -449.01,83.76 -176.82,15.13 -400.16,23.28 -670.03,25.6 -303.62,1.15 -550.24,43.03 -737.51,124.46 -188.46,82.6 -331.55,215.22 -428.09,399.01 -96.56,184.96 -160.54,429.24 -191.94,735.19l31.4 0c109.36,-229.17 265.22,-410.63 466.47,-543.25 201.24,-131.46 461.81,-197.76 780.56,-197.76 332.68,0 621.18,70.96 867.8,214.04 246.6,143.09 436.21,346.65 570,609.55 133.76,264.07 201.24,576.97 201.24,938.75 0,382.73 -76.78,716.58 -231.49,1001.58 -153.56,283.83 -373.41,503.69 -658.41,658.41 -286.17,155.87 -628.18,233.82 -1026.01,233.82 -398.99,0 -740.99,-81.43 -1028.31,-243.12 -286.17,-161.71 -507.19,-400.18 -660.73,-715.41 -154.71,-314.1 -232.67,-701.46 -232.67,-1160.95l0 -278.02c0,-941.08 190.79,-1634.39 570,-2078.75 380.4,-444.36 935.28,-668.88 1665.81,-672.36 183.79,-1.17 350.13,-1.17 500.19,-1.17 148.89,1.17 280.35,-5.82 392.01,-22.1 112.86,-15.13 207.07,-47.7 282.67,-95.38zm-1481.98 4352.94c138.41,0 258.23,-37.23 359.43,-111.68 101.21,-74.46 177.99,-181.47 232.67,-319.9 54.66,-139.59 82.58,-305.93 82.58,-501.37 0,-194.27 -27.93,-360.61 -83.76,-497.87 -54.68,-137.26 -133.78,-241.97 -233.82,-312.93 -101.21,-72.11 -221.02,-108.18 -359.45,-108.18 -105.84,0 -201.24,19.78 -287.32,60.5 -86.08,40.71 -159.36,100.03 -218.69,179.14 -59.33,77.93 -104.69,174.49 -136.09,288.48 -31.4,114.01 -46.53,244.29 -46.53,390.86 0,290.82 60.48,518.82 182.62,684.01 122.16,166.34 292,248.94 508.36,248.94zm4325.02 914.33c-400.18,0 -743.34,-82.6 -1029.51,-246.62 -287.32,-165.19 -507.17,-394.36 -661.88,-689.81 -154.71,-294.32 -231.49,-636.3 -231.49,-1027.16 0,-390.86 76.78,-734.03 231.49,-1029.49 154.71,-295.47 374.56,-524.64 661.88,-688.66 286.17,-165.19 629.33,-246.62 1029.51,-246.62 400.16,0 743.32,81.43 1029.49,246.62 287.32,164.01 507.17,393.18 661.88,688.66 154.71,295.45 231.49,638.63 231.49,1029.49 0,390.86 -76.78,732.84 -231.49,1027.16 -154.71,295.45 -374.56,524.62 -661.88,689.81 -286.17,164.01 -629.33,246.62 -1029.49,246.62zm6.98 -914.33c145.41,0 268.7,-45.38 369.91,-133.78 100.03,-89.56 177.99,-214.04 231.49,-372.23 53.51,-158.21 80.26,-342 80.26,-550.24 0,-211.7 -26.75,-396.66 -80.26,-554.87 -53.51,-159.36 -131.46,-282.67 -231.49,-372.23 -101.21,-89.58 -224.5,-133.78 -369.91,-133.78 -150.06,0 -276.87,44.2 -380.4,133.78 -103.51,89.56 -181.47,212.87 -234.97,372.23 -53.51,158.21 -80.26,343.18 -80.26,554.87 0,208.24 26.75,392.03 80.26,550.24 53.51,158.19 131.46,282.67 234.97,372.23 103.53,88.41 230.34,133.78 380.4,133.78zm2211.36 -2038.05l0 -927.13 3568.9 0 0 927.13 -1216.78 0 0 2880.24 -1150.47 0 0 -2880.24 -1201.65 0z"/>
   <path class="fil3" d="M44839.17 19965.48l1477.56 0c440.55,0 741.03,-76.8 899.18,-232.69 160.41,-153.64 239.48,-438.31 239.48,-854.01l0 -377.28c0,-417.97 -81.33,-707.16 -241.74,-863.04 -160.41,-155.89 -460.89,-234.95 -896.92,-234.95l-1477.56 0 0 2561.98zm-2643.3 5096.87l0 -9854.83 3974.01 0c1518.22,0 2557.47,198.81 3122.28,598.7 564.82,399.89 847.23,1100.26 847.23,2101.08l0 793.01c0,666.47 -160.41,1188.37 -483.48,1565.65 -320.82,377.3 -797.51,605.49 -1427.85,684.55 666.47,110.7 1152.21,332.12 1454.95,661.97 305.01,332.12 456.37,804.28 456.37,1416.55l0 2033.31 -2697.54 0 0 -1773.52c0,-420.21 -81.33,-709.4 -241.74,-865.28 -160.41,-155.89 -460.89,-234.97 -896.92,-234.97l-1464.01 0 0 2873.77 -2643.3 0zm9730.58 0l0 -9854.83 7403.55 0 0 2195.99 -4760.25 0 0 1707.98 4622.42 0 0 1897.77 -4622.42 0 0 1857.1 4866.42 0 0 2195.99 -7509.72 0zm17217.72 -9854.83l3861.05 0 0 9854.83 -2575.53 0 0 -7240.9 -1979.12 7240.9 -2643.3 0 -1992.67 -7319.96 0 7319.96 -2575.53 0 0 -9854.83 3861.05 0 2019.78 7127.92 2024.28 -7127.92zm8255.28 4123.13l0 1622.13c0,842.7 94.9,1373.63 284.69,1588.26 189.76,216.89 587.39,325.33 1192.87,325.33l490.26 0c603.2,0 1003.09,-110.7 1197.4,-332.12 194.29,-219.13 291.43,-747.8 291.43,-1581.47l0 -1622.13c0,-838.2 -97.14,-1369.1 -291.43,-1592.78 -194.31,-223.66 -594.2,-334.36 -1197.4,-334.36l-490.26 0c-600.96,0 -996.32,110.7 -1188.37,332.09 -192.02,219.15 -289.19,752.34 -289.19,1595.05zm-2697.52 -219.15c0,-1495.62 280.14,-2541.66 840.44,-3135.83 560.28,-594.2 1536.28,-890.15 2930.23,-890.15l1296.81 0c1398.47,0 2379,298.22 2941.54,894.68 562.56,596.44 842.7,1640.21 842.7,3131.31l0 2046.89c0,1491.09 -280.14,2534.87 -842.7,3131.31 -562.54,596.44 -1543.07,894.66 -2941.54,894.66l-1296.81 0c-1393.95,0 -2369.95,-295.96 -2930.23,-890.13 -560.3,-594.2 -840.44,-1640.21 -840.44,-3135.83l0 -2046.89zm10543.91 5950.86l0 -9854.83 3931.08 0 3063.53 7319.96 0 -7319.96 2521.34 0 0 9854.83 -3931.1 0 -3063.53 -7385.47 0 7385.47 -2521.31 0zm13462.85 0l0 -7658.84 -2534.89 0 0 -2195.99 7726.64 0 0 2195.99 -2521.31 0 0 7658.84 -2670.43 0z"/>
  </g>
 </g>
</svg>
